<svg width="23" height="23" viewBox="0 0 23 23" fill="none" xmlns="http://www.w3.org/2000/svg">
<circle cx="11.6007" cy="11.2862" r="11.02" fill="white"/>
<path d="M14.5526 6.76016H13.608C13.49 5.75654 12.6044 4.98907 11.6008 4.98907C10.5972 4.98907 9.71166 5.75654 9.59359 6.76016H8.64901C7.6454 6.76016 6.87793 7.52763 6.87793 8.53124V15.0252C6.87793 16.0288 7.6454 16.7963 8.64901 16.7963H14.5526C15.5562 16.7963 16.3237 16.0288 16.3237 15.0252V8.53124C16.3237 7.52763 15.5562 6.76016 14.5526 6.76016ZM10.8333 7.46859C10.7743 7.35052 10.7153 7.17341 10.7153 7.05534C10.7153 6.58305 11.1285 6.1698 11.6008 6.1698C12.0731 6.1698 12.4864 6.58305 12.4864 7.05534C12.4864 7.23245 12.4273 7.35052 12.3683 7.46859C12.2502 7.70474 12.3093 8.05895 12.5454 8.23606L13.3719 8.82642V9.1216H9.82974V8.82642L10.6562 8.23606C10.8924 8.05895 10.9514 7.70474 10.8333 7.46859ZM15.143 15.0252C15.143 15.3794 14.9068 15.6156 14.5526 15.6156H8.64901C8.2948 15.6156 8.05865 15.3794 8.05865 15.0252V8.53124C8.05865 8.17703 8.2948 7.94088 8.64901 7.94088H9.00323L8.82612 8.05895C8.70805 8.17703 8.58998 8.35413 8.58998 8.53124L8.64901 9.71196C8.64901 10.0071 8.94419 10.3023 9.23937 10.3023H13.9623C14.3165 10.3023 14.5526 10.0662 14.5526 9.71196V8.53124C14.5526 8.35413 14.4346 8.17703 14.3165 8.05895L14.1394 7.94088H14.5526C14.9068 7.94088 15.143 8.17703 15.143 8.53124V15.0252Z" fill="#8FBF13"/>
<path d="M12.7818 11.483H10.4204C10.0662 11.483 9.83002 11.7191 9.83002 12.0733C9.83002 12.4275 10.0662 12.6637 10.4204 12.6637H12.7818C13.136 12.6637 13.3722 12.4275 13.3722 12.0733C13.3722 11.7191 13.136 11.483 12.7818 11.483Z" fill="#8FBF13"/>
<path d="M12.7818 13.2541H10.4204C10.0662 13.2541 9.83002 13.4902 9.83002 13.8445C9.83002 14.1987 10.0662 14.4348 10.4204 14.4348H12.7818C13.136 14.4348 13.3722 14.1987 13.3722 13.8445C13.3722 13.4902 13.136 13.2541 12.7818 13.2541Z" fill="#8FBF13"/>
</svg>
