<svg width="26" height="39" viewBox="0 0 26 39" fill="none" xmlns="http://www.w3.org/2000/svg">
<path d="M16.8412 16.38L20.887 23.3881L25.2 23.3883V25.9084L23.7296 25.9081L22.7763 37.3529C22.7218 38.006 22.1759 38.5084 21.5206 38.5084H3.67937C3.02406 38.5084 2.47814 38.006 2.42372 37.3529L1.46916 25.9081L0 25.9084V23.3883L4.31172 23.3881L8.35881 16.38L10.5412 17.64L7.22232 23.3881H17.9764L14.6589 17.64L16.8412 16.38ZM21.2008 25.9081L3.99798 25.9084L4.8384 35.9884H20.3604L21.2008 25.9081ZM10.08 28.4284L11.0023 33.4684H8.48232L7.56 28.4284H10.08ZM17.64 28.4284L16.7164 33.4684H14.1964L15.12 28.4284H17.64Z" fill="white"/>
<rect x="2.52002" width="21.42" height="21.42" rx="10.71" fill="#8FBF13"/>
<path d="M13.2345 14.4532C12.5983 14.4505 12.0546 14.2827 11.6036 13.9498C11.1526 13.6169 10.8076 13.1324 10.5687 12.4961C10.3297 11.8598 10.2103 11.0934 10.2103 10.1967C10.2103 9.30269 10.3297 8.5389 10.5687 7.90532C10.8103 7.27174 11.1566 6.7885 11.6076 6.45561C12.0614 6.12271 12.6037 5.95626 13.2345 5.95626C13.8654 5.95626 14.4064 6.12405 14.8574 6.45963C15.3084 6.79253 15.6534 7.27577 15.8924 7.90935C16.134 8.54024 16.2548 9.30269 16.2548 10.1967C16.2548 11.096 16.1353 11.8638 15.8964 12.5001C15.6575 13.1337 15.3125 13.6183 14.8614 13.9539C14.4104 14.2868 13.8681 14.4532 13.2345 14.4532ZM13.2345 13.378C13.793 13.378 14.2292 13.1055 14.5433 12.5605C14.8601 12.0155 15.0185 11.2276 15.0185 10.1967C15.0185 9.51209 14.946 8.93355 14.801 8.46105C14.6588 7.98586 14.4534 7.62612 14.1849 7.38181C13.9191 7.13482 13.6023 7.01133 13.2345 7.01133C12.6788 7.01133 12.2426 7.28516 11.9258 7.83284C11.609 8.38051 11.4492 9.16845 11.4466 10.1967C11.4466 10.8839 11.5177 11.4652 11.66 11.9404C11.805 12.4129 12.0103 12.7713 12.2761 13.0156C12.5419 13.2572 12.8614 13.378 13.2345 13.378Z" fill="white"/>
</svg>
