<svg width="24" height="24" viewBox="0 0 24 24" fill="none" xmlns="http://www.w3.org/2000/svg">
<path d="M12.4653 8.33989C13.6335 7.2913 15.4387 7.32612 16.5639 8.45369C17.6891 9.58126 17.7278 11.3777 16.6812 12.5493L12.4647 16.7725L8.24831 12.5493C7.20181 11.3777 7.24093 9.57842 8.36566 8.45369C9.49167 7.32768 11.2937 7.28975 12.4653 8.33989ZM15.8599 9.15626C15.1144 8.40922 13.9108 8.37892 13.1297 9.08005L12.4657 9.67601L11.8014 9.08052C11.0181 8.3784 9.81665 8.40929 9.06896 9.15699C8.3281 9.89784 8.29091 11.0844 8.97365 11.8681L12.4647 15.3647L15.9559 11.8681C16.6389 11.0841 16.6019 9.8998 15.8599 9.15626Z" fill="#D9D9D9"/>
<rect x="1.21447" y="1.30252" width="21.7611" height="21.7611" rx="1.25545" stroke="#D9D9D9" stroke-width="0.836966"/>
</svg>
