<svg width="23" height="24" viewBox="0 0 23 24" fill="none" xmlns="http://www.w3.org/2000/svg">
<path d="M12.1466 14.5587L10.0934 13.4947C9.73641 13.8571 9.22846 14.0835 8.66483 14.0835C7.58454 14.0835 6.7088 13.2516 6.7088 12.2253C6.7088 11.199 7.58454 10.3671 8.66483 10.3671C9.22843 10.3671 9.73636 10.5935 10.0933 10.9559L12.1466 9.8919C12.1083 9.74662 12.0879 9.59455 12.0879 9.43797C12.0879 8.4117 12.9636 7.57974 14.0439 7.57974C15.1242 7.57974 15.9999 8.4117 15.9999 9.43797C15.9999 10.4642 15.1242 11.2962 14.0439 11.2962C13.4803 11.2962 12.9723 11.0697 12.6154 10.7073L10.5621 11.7713C10.6005 11.9166 10.6209 12.0687 10.6209 12.2253C10.6209 12.3819 10.6005 12.534 10.5621 12.6792L12.6154 13.7432C12.9723 13.3809 13.4803 13.1544 14.0439 13.1544C15.1242 13.1544 15.9999 13.9864 15.9999 15.0126C15.9999 16.0389 15.1242 16.8709 14.0439 16.8709C12.9636 16.8709 12.0879 16.0389 12.0879 15.0126C12.0879 14.856 12.1083 14.7039 12.1466 14.5587ZM8.66483 13.1544C9.20497 13.1544 9.64284 12.7385 9.64284 12.2253C9.64284 11.7122 9.20497 11.2962 8.66483 11.2962C8.12469 11.2962 7.68681 11.7122 7.68681 12.2253C7.68681 12.7385 8.12469 13.1544 8.66483 13.1544ZM14.0439 10.3671C14.5841 10.3671 15.0219 9.9511 15.0219 9.43797C15.0219 8.92483 14.5841 8.50885 14.0439 8.50885C13.5037 8.50885 13.0659 8.92483 13.0659 9.43797C13.0659 9.9511 13.5037 10.3671 14.0439 10.3671ZM14.0439 15.9417C14.5841 15.9417 15.0219 15.5258 15.0219 15.0126C15.0219 14.4995 14.5841 14.0835 14.0439 14.0835C13.5037 14.0835 13.0659 14.4995 13.0659 15.0126C13.0659 15.5258 13.5037 15.9417 14.0439 15.9417Z" fill="#D9D9D9"/>
<rect x="0.43156" y="1.30252" width="21.7611" height="21.7611" rx="1.25545" stroke="#D9D9D9" stroke-width="0.836966"/>
</svg>
