<svg width="78" height="78" viewBox="0 0 78 78" fill="none" xmlns="http://www.w3.org/2000/svg">
<circle cx="38.5855" cy="39.4144" r="38.5855" fill="#8FBF13"/>
<path d="M38.9689 39.7759C43.4561 39.7759 47.0937 36.1383 47.0937 31.6512C47.0937 27.164 43.4561 23.5264 38.9689 23.5264C34.4817 23.5264 30.8441 27.164 30.8441 31.6512C30.8441 36.1383 34.4817 39.7759 38.9689 39.7759Z" fill="white"/>
<path d="M47.3441 43.026C46.7966 42.5193 46.0802 42.2339 45.3347 42.2339H32.603C31.8575 42.2339 31.1411 42.5134 30.5936 43.026L25.4509 47.8077C24.851 48.3668 24.5132 49.1472 24.5132 49.9684V53.0145C24.5132 54.6395 25.8353 55.9616 27.4602 55.9616H50.4775C52.1025 55.9616 53.4246 54.6395 53.4246 53.0145V49.9684C53.4246 49.1472 53.0868 48.3668 52.4869 47.8077L47.3441 43.026Z" fill="white"/>
</svg>
