<svg width="24" height="25" viewBox="0 0 24 25" fill="none" xmlns="http://www.w3.org/2000/svg">
<path d="M12 0.867859C18.624 0.867859 24 6.24386 24 12.8679C24 19.4919 18.624 24.8679 12 24.8679C5.376 24.8679 0 19.4919 0 12.8679C0 6.24386 5.376 0.867859 12 0.867859ZM4.82798 16.9674C6.589 19.5961 9.23413 21.2679 12.1916 21.2679C15.1492 21.2679 17.7943 19.5961 19.5553 16.9674C17.6262 15.1685 15.0374 14.0679 12.1916 14.0679C9.34585 14.0679 6.75714 15.1685 4.82798 16.9674ZM12 11.6679C13.9883 11.6679 15.6 10.0561 15.6 8.06786C15.6 6.07964 13.9883 4.46786 12 4.46786C10.0117 4.46786 8.4 6.07964 8.4 8.06786C8.4 10.0561 10.0117 11.6679 12 11.6679Z" fill="white"/>
</svg>
