<svg width="78" height="78" viewBox="0 0 78 78" fill="none" xmlns="http://www.w3.org/2000/svg">
<circle cx="38.5855" cy="39.4144" r="38.5855" fill="#8FBF13"/>
<path d="M53.7082 36.2509C53.2828 35.5125 52.9551 35.0317 52.3055 35.0317C51.7306 35.0317 51.5006 35.5125 51.1729 36.291C50.8797 36.995 50.5118 37.8765 49.5517 37.8765C48.5916 37.8765 48.2294 36.9607 47.9535 36.228C47.6488 35.4037 47.4476 34.9973 46.9877 35.0317C46.5622 35.0431 46.3898 35.398 46.0966 36.2165C45.8206 37.0007 45.4412 38.0769 44.2224 38.0769C43.0036 38.0769 42.7219 37.0408 42.4805 36.2795C42.193 35.3637 42.009 34.9916 41.4112 35.0317C40.9052 35.066 40.7788 35.3579 40.6235 36.3367C40.4798 37.2583 40.2786 38.5233 38.7034 38.5863C38.6689 38.592 38.6287 38.592 38.5884 38.592C36.9385 38.592 36.674 37.0408 36.5015 36.0105C36.444 35.6728 36.3463 35.1175 36.2313 35.0317C36.1279 35.1004 36.0301 35.5468 35.9784 35.8101C35.7772 36.7546 35.4495 38.3287 33.4201 38.3287C31.3907 38.3287 30.7583 36.8118 30.3961 35.9074C30.3386 35.7586 30.2582 35.564 30.1892 35.4266C30.1719 35.5125 30.1604 35.6098 30.1432 35.6899C29.9995 36.6115 29.7293 38.323 26.9927 38.5691C26.1994 38.6435 25.5555 38.4833 25.0898 38.0826C24.5207 37.596 24.3425 36.8805 24.2735 36.2852C23.8423 36.9549 23.3422 37.4014 22.7788 37.6132V56.2106H54.3866V37.1896C54.1106 36.9435 53.9037 36.5829 53.7082 36.2509ZM37.3294 51.1162H26.7743V41.2251H37.3294V51.1162ZM50.9487 54.2587H40.0716V41.2709H50.9487V54.2587ZM51.5121 23.5264H26.5673L20.8816 30.8474V35.9418C21.0713 36.0849 21.606 36.4112 22.2039 36.3139C22.727 36.228 23.2042 35.8273 23.6238 35.129C23.9745 34.5394 24.2332 34.1158 24.6587 34.2189C25.0438 34.3104 25.0668 34.6882 25.0898 35.1233C25.1243 35.6499 25.1703 36.4512 25.6532 36.8576C25.9292 37.098 26.3546 37.1954 26.918 37.1438C28.9819 36.9549 29.1544 35.8617 29.2923 34.9859C29.3671 34.5051 29.4706 33.8525 30.1259 33.8525C30.7353 33.8525 30.971 34.4421 31.201 35.0202C31.5517 35.896 31.9484 36.8977 33.4201 36.8977C34.6561 36.8977 34.8976 36.1707 35.1333 35.0603C35.2655 34.4135 35.438 33.6064 36.2313 33.6064C37.0649 33.6064 37.2144 34.4993 37.3524 35.295C37.5536 36.4798 37.7376 37.2068 38.6689 37.1553C39.4623 37.1267 39.606 36.6916 39.7727 35.6327C39.9049 34.8084 40.0831 33.6865 41.3537 33.6064C42.6989 33.5205 43.0439 34.6367 43.3026 35.4495C43.567 36.2852 43.7337 36.6458 44.2224 36.6458C44.7686 36.6458 44.9755 36.2337 45.286 35.3579C45.5619 34.5852 45.9011 33.6236 46.9704 33.6007C48.0915 33.5835 48.4824 34.6024 48.7641 35.3579C49.04 36.0963 49.2068 36.4455 49.5517 36.4455C49.8966 36.4455 50.0749 36.1078 50.3738 35.3866C50.69 34.631 51.1269 33.6007 52.3055 33.6007C53.484 33.6007 54.0531 34.5508 54.4556 35.2492C54.743 35.7472 54.95 36.0734 55.1799 36.0734H56.2895V31.5744L51.5121 23.5264Z" fill="white"/>
</svg>
