<svg width="159" height="55" viewBox="0 0 159 55" fill="none" xmlns="http://www.w3.org/2000/svg">
<g clip-path="url(#clip0_521_1030)">
<path d="M8.62311 3.20441H0V26.6633H3.43719V18.8587H8.62311C13.7035 18.8587 16.2588 14.9639 16.2588 11.0465C16.2588 7.12923 13.7035 3.20441 8.62311 3.20441ZM8.62311 15.5042H3.43719V6.62643H8.62311C11.4799 6.62643 12.897 8.83273 12.897 11.0766C12.897 13.3204 11.4799 15.5042 8.62311 15.5042Z" fill="white"/>
<path d="M28.01 17.8455C29.733 17.6047 31.3067 16.7412 32.4313 15.4195C33.5559 14.0978 34.1527 12.4104 34.108 10.6788C34.108 6.92659 31.5528 3.17438 26.4347 3.17438H17.8492V26.6633H21.2111V6.62642H26.4347C26.9882 6.59 27.5432 6.66831 28.0648 6.85638C28.5863 7.04446 29.063 7.33821 29.4646 7.71907C29.8663 8.09993 30.1843 8.55961 30.3984 9.06906C30.6125 9.57851 30.7181 10.1266 30.7085 10.6788C30.7222 11.2338 30.6198 11.7855 30.4076 12.2989C30.1955 12.8123 29.8783 13.2761 29.4763 13.6608C29.0743 14.0455 28.5962 14.3427 28.0726 14.5334C27.5489 14.7242 26.9911 14.8043 26.4347 14.7687H22.4548V16.3747L31.0402 26.6633H35.4271L28.01 17.8455Z" fill="white"/>
<path d="M79.6507 3.20441H71.0352V26.6633H74.4648V18.8587H79.6507C84.7312 18.8587 87.294 14.9639 87.294 11.0465C87.294 7.12923 84.7312 3.20441 79.6507 3.20441ZM79.6507 15.5042H74.4648V6.62643H79.6507C82.5151 6.62643 83.9246 8.83273 83.9246 11.0766C83.9246 13.3204 82.5151 15.5042 79.6507 15.5042Z" fill="white"/>
<path d="M92.1407 23.2638V16.6449H102.814V13.2303H92.1407V6.62644H103.048V3.23444H88.7261V26.6633H103.108V23.2638H92.1407Z" fill="white"/>
<path d="M114.799 17.8455C116.521 17.603 118.092 16.7388 119.216 15.4173C120.339 14.0958 120.934 12.4093 120.889 10.6788C120.889 6.92659 118.334 3.17438 113.216 3.17438H104.631V26.6633H107.992V6.62642H113.216C113.77 6.58885 114.325 6.66636 114.847 6.85401C115.369 7.04167 115.847 7.33538 116.249 7.71647C116.65 8.09756 116.968 8.55771 117.182 9.06769C117.396 9.57767 117.501 10.1263 117.49 10.6788C117.504 11.2338 117.401 11.7855 117.189 12.2989C116.977 12.8123 116.66 13.2761 116.258 13.6608C115.856 14.0455 115.378 14.3427 114.854 14.5334C114.33 14.7242 113.773 14.8043 113.216 14.7687H109.244V16.3747L117.829 26.6633H122.231L114.799 17.8455Z" fill="white"/>
<path d="M121.123 3.20441V6.62643H128.261V26.7683H131.661V6.62643H138.761V3.20441H121.123Z" fill="white"/>
<path d="M154.96 3.23444L148.53 13.508L142.101 3.23444H138.098L138.761 4.30007L146.812 17.1101V26.6633H150.249V17.1101L159 3.23444H154.96Z" fill="white"/>
<path d="M82.4548 40.9967C81.8442 38.5128 79.191 37.9574 77.0578 37.6873C75.3844 37.5372 73.6206 37.3346 73.5075 35.7361C73.4458 35.2279 73.5746 34.7148 73.8693 34.2953C74.2284 33.9089 74.6665 33.6038 75.1541 33.4005C75.6418 33.1973 76.1676 33.1006 76.696 33.1171C78.0603 33.1171 79.5754 33.6949 79.892 35.0907L82.1533 35.0007C81.7538 32.164 79.2588 30.9183 76.8769 30.9183C75.9743 30.8905 75.077 31.0649 74.2511 31.4286C73.4253 31.7922 72.6921 32.3359 72.1055 33.0195C71.4697 33.8576 71.1665 34.8996 71.2538 35.9462C71.495 39.1957 74.3593 39.6985 76.7864 39.9686C78.3467 40.1262 79.9523 40.3288 80.2236 41.4695C80.2632 41.6444 80.2834 41.8231 80.2839 42.0023C80.2839 43.6008 78.4598 44.5388 76.7864 44.5388C75.3392 44.5388 73.5829 43.7884 73.4246 42.3325V42.4301V42.0924L71.1633 42.1374V42.5577C71.4573 45.3268 74.3819 46.7526 76.7864 46.7526C79.598 46.7526 82.5904 45.0191 82.5904 42.0248C82.5782 41.6786 82.5328 41.3343 82.4548 40.9967Z" fill="white"/>
<path d="M96.701 33.2221C95.9642 32.4799 95.0868 31.8907 94.1196 31.4886C93.1524 31.0864 92.1147 30.8793 91.0666 30.8793C90.0184 30.8793 88.9807 31.0864 88.0135 31.4886C87.0464 31.8907 86.169 32.4799 85.4322 33.2221C83.9426 34.72 83.107 36.7426 83.107 38.8504C83.107 40.9583 83.9426 42.9809 85.4322 44.4788C86.1653 45.2274 87.0415 45.8223 88.0092 46.2285C88.9769 46.6347 90.0164 46.844 91.0666 46.844C92.1168 46.844 93.1563 46.6347 94.124 46.2285C95.0917 45.8223 95.9679 45.2274 96.701 44.4788C98.1905 42.9809 99.0261 40.9583 99.0261 38.8504C99.0261 36.7426 98.1905 34.72 96.701 33.2221ZM95.0955 42.8653C94.025 43.9355 92.5723 44.5399 91.0553 44.5463C90.3117 44.5445 89.576 44.3948 88.8913 44.1062C88.2066 43.8175 87.5866 43.3957 87.0678 42.8653C86.5373 42.3371 86.1164 41.71 85.8292 41.0198C85.5421 40.3297 85.3943 39.59 85.3943 38.8429C85.3943 38.0959 85.5421 37.3562 85.8292 36.666C86.1164 35.9759 86.5373 35.3488 87.0678 34.8206C87.5866 34.2902 88.2066 33.8684 88.8913 33.5797C89.576 33.291 90.3117 33.1414 91.0553 33.1396C92.1882 33.1449 93.2942 33.4837 94.2342 34.1134C95.1742 34.743 95.9062 35.6354 96.3381 36.6782C96.7699 37.7209 96.8824 38.8676 96.6613 39.9739C96.4402 41.0801 95.8954 42.0966 95.0955 42.8953V42.8653Z" fill="white"/>
<path d="M109.96 31.0909V41.9573C109.96 43.6683 108.113 44.5313 106.485 44.5313C104.857 44.5313 102.987 43.6833 102.987 41.9723V31.0909H100.726V41.9573C100.726 45.1242 103.741 46.7676 106.5 46.7676C109.259 46.7676 112.259 45.1242 112.259 41.9723V31.0909H109.96Z" fill="white"/>
<path d="M121.033 40.7716C122.173 40.61 123.214 40.0367 123.958 39.1609C124.701 38.285 125.095 37.1677 125.065 36.0213C125.085 35.3562 124.966 34.6944 124.716 34.0775C124.465 33.4606 124.089 32.9021 123.611 32.4373C123.133 31.9726 122.563 31.6116 121.938 31.3772C121.312 31.1429 120.645 31.0403 119.977 31.0759H114.286V46.61H116.548V33.3347H120.008C120.364 33.3347 120.717 33.4046 121.046 33.5403C121.375 33.6761 121.674 33.8751 121.926 34.126C122.178 34.3768 122.378 34.6747 122.515 35.0024C122.651 35.3302 122.721 35.6815 122.721 36.0363C122.721 36.3911 122.651 36.7424 122.515 37.0701C122.378 37.3979 122.178 37.6957 121.926 37.9466C121.674 38.1975 121.375 38.3965 121.046 38.5322C120.717 38.668 120.364 38.7379 120.008 38.7379H117.377V39.7735L123.06 46.5875H125.985L121.033 40.7716Z" fill="white"/>
<path d="M137.94 40.8016C137.654 41.6894 137.14 42.4875 136.449 43.1171C135.758 43.7466 134.914 44.1858 134.001 44.3912C133.087 44.5965 132.136 44.5611 131.24 44.2882C130.345 44.0153 129.536 43.5145 128.894 42.8353C127.864 41.7685 127.288 40.3458 127.288 38.8654C127.288 37.3851 127.864 35.9624 128.894 34.8956C129.387 34.3728 129.981 33.9549 130.64 33.6672C131.3 33.3796 132.011 33.2282 132.731 33.2221C133.846 33.1804 134.943 33.5056 135.853 34.1472C136.763 34.7889 137.436 35.7113 137.766 36.7717H140.028C139.668 35.1265 138.747 33.6564 137.42 32.6122C136.094 31.568 134.445 31.0144 132.754 31.0458C131.745 31.0518 130.747 31.2594 129.82 31.6565C128.893 32.0535 128.055 32.6318 127.357 33.3572C125.925 34.8532 125.126 36.8403 125.126 38.9067C125.126 40.9731 125.925 42.9603 127.357 44.4563C128.305 45.4306 129.501 46.1307 130.817 46.4822C132.134 46.8337 133.521 46.8233 134.832 46.4522C136.142 46.0811 137.328 45.3632 138.261 44.3748C139.195 43.3863 139.842 42.1645 140.133 40.8391L137.94 40.8016Z" fill="white"/>
<path d="M143.412 44.3737V39.9761H150.482V37.7248H143.412V33.3347H150.641V31.0834H141.143V46.6101H150.656V44.3587L143.412 44.3737Z" fill="white"/>
<path d="M42.8668 20.0218C43.7686 21.4597 44.9594 22.6963 46.3643 23.654C46.3643 23.5939 46.3643 23.4814 45.8744 23.0161C45.0934 22.3216 44.418 21.5177 43.8693 20.6297C42.7613 19.0838 42.7538 18.8061 42.6558 16.6823C42.7328 16.1859 42.7631 15.6835 42.7462 15.1815C42.6093 14.6705 42.521 14.1479 42.4824 13.6205C42.4827 13.4201 42.5211 13.2215 42.5955 13.0352C42.5955 13.0352 42.5955 12.9676 42.5955 12.9376V12.7575L42.5352 12.8101H42.4749C42.4749 12.7125 42.4749 12.6149 42.4749 12.5249H42.4146V12.4874V12.5324C42.3917 12.5657 42.3715 12.6009 42.3543 12.6375C42.294 12.8101 42.2035 12.9752 42.1357 13.1478H42.0904C42.0904 13.1478 42.0904 13.1478 42.0904 13.1928V13.2453C41.9698 13.8081 41.9472 13.9507 41.9095 14.2359C41.9095 14.6036 41.8417 15.0989 41.8342 15.4666C41.8382 16.2389 41.9241 17.0086 42.0904 17.763C42.2145 18.312 42.386 18.8493 42.603 19.3689L42.9196 20.0668L42.8668 20.0218Z" fill="white"/>
<path d="M44.3292 8.70513C44.0578 9.02032 44.0427 9.07285 44.0352 9.11037V9.20042L43.5226 10.1385C44.0126 9.34301 44.0503 9.28297 44.2764 9.20793V9.29798L44.397 9.23044L44.4498 9.18542C44.7362 9.02782 44.7437 9.27547 44.7362 9.27547C44.3668 10.4236 44.3141 10.5662 43.8769 10.6638C43.8769 10.6038 43.8769 10.5887 43.9221 10.3411C43.8317 10.3411 43.7261 10.3411 43.6809 10.4312C43.6357 10.5212 43.6809 10.4312 43.5452 11.0915C43.5075 11.3317 43.2286 11.3767 43.1382 11.5793C43.1014 11.6596 43.0809 11.7463 43.0779 11.8345C43.0923 11.9906 43.0697 12.1479 43.0122 12.2939C42.9546 12.4398 42.8635 12.5703 42.7462 12.675C42.7392 12.7699 42.7392 12.8652 42.7462 12.9601C43.0704 12.5849 43.1005 12.0446 43.4472 11.6844L44.1482 10.979C44.3141 10.979 44.7513 10.5587 44.7513 10.5512C44.8568 10.4161 45.0075 10.3336 45.1131 10.1985C45.2186 10.0634 45.2412 9.77827 45.3844 9.60566C45.5203 9.4754 45.6486 9.3376 45.7689 9.19292V9.1554L46.3643 8.32241H46.402C46.402 8.32241 46.3643 8.39745 46.2513 8.57756C45.7236 9.43306 45.7236 9.43306 45.7387 9.47809C45.7538 9.52312 46.3945 8.72765 46.3945 8.72765C46.3945 8.72765 46.7714 8.05225 46.8241 7.9772C46.8769 7.90216 47.1407 7.75957 47.2613 7.60948C47.348 7.38571 47.454 7.16979 47.5779 6.9641C47.201 6.49132 49.2739 5.65083 49.3116 5.65833C49.6255 5.70851 49.9435 5.72862 50.2613 5.71837H50.1784H50.0427V5.67334C50.1251 5.65651 50.2041 5.62607 50.2764 5.58329C50.2085 5.53826 50.1407 5.58329 50.0729 5.58329C50.1314 5.55627 50.1919 5.5337 50.2538 5.51575H50.0955H50.0352C49.4033 5.62115 48.7826 5.78444 48.1809 6.00354C47.6043 6.23379 47.0472 6.50984 46.5151 6.82902C46.0262 7.14864 45.5626 7.50488 45.1281 7.89465C44.8869 8.12729 44.5704 8.44248 44.3744 8.68262L44.3292 8.70513Z" fill="white"/>
<path d="M42.8518 11.1816C42.9121 11.1441 42.9121 11.054 43.0025 11.0465C43.0628 10.9034 43.1469 10.7715 43.2513 10.6563L43.4171 10.5062C43.4171 10.5062 43.4171 10.5062 43.4699 10.5062C43.4803 10.5084 43.4911 10.5083 43.5016 10.506C43.512 10.5036 43.5218 10.4991 43.5304 10.4927C43.5389 10.4864 43.546 10.4782 43.5512 10.4689C43.5564 10.4596 43.5595 10.4493 43.5603 10.4386C43.5603 10.3636 43.5075 10.3411 43.4774 10.3486C43.4774 10.3486 43.2965 10.5287 43.2588 10.5812C43.1172 10.7777 42.9888 10.9833 42.8744 11.1966L42.8518 11.1816Z" fill="white"/>
<path d="M42.6105 11.5268C42.6105 11.5268 42.6105 11.5943 42.6105 11.6094L42.7462 11.4292C42.7483 11.4043 42.7483 11.3792 42.7462 11.3542C42.7462 11.3542 42.7462 11.4067 42.6935 11.4217C42.6935 11.4217 42.6935 11.4217 42.6935 11.3242C42.6935 11.2266 42.7312 11.2416 42.6935 11.2341C42.6935 11.2341 42.5352 11.4968 42.5276 11.5268" fill="white"/>
<path d="M62.1558 17.0651C62.1558 17.1627 62.1558 17.1852 62.1558 17.2002C62.1526 17.1879 62.1526 17.175 62.1558 17.1627C62.1558 17.1627 62.1558 17.1627 62.1558 17.2002C62.201 17.1026 62.201 16.9901 62.2462 16.8925C62.2915 16.7949 62.2462 16.8925 62.201 17.2827C62.1985 17.2678 62.1985 17.2526 62.201 17.2377C62.2462 16.8775 62.3141 16.3972 62.3442 16.037C62.3442 16.2246 62.1935 16.84 62.1935 16.8475C62.1935 16.855 62.1332 16.99 62.1105 17.0501L62.1558 17.0651Z" fill="white"/>
<path d="M61.2588 19.6166C61.0223 20.1564 60.7556 20.6826 60.4598 21.1925C60.3015 21.4627 60.1131 21.7104 59.9397 21.943C59.8719 22.0481 59.8719 22.0481 59.8719 22.0856C60.0603 22.0856 60.0452 21.8905 60.1508 21.8079C60.5025 21.3716 60.8176 20.9073 61.093 20.4196C61.3655 19.9382 61.5999 19.4364 61.794 18.9187L61.8618 18.7161C62.1784 17.5379 62.1784 17.5379 62.1859 17.4929C62.0293 18.2565 61.7107 18.978 61.2513 19.6091L61.2588 19.6166Z" fill="white"/>
<path d="M61.0553 18.9262C60.864 19.4451 60.6295 19.9471 60.3543 20.4271C60.0786 20.9128 59.7662 21.377 59.4196 21.8154L59.6759 21.4477L59.5176 21.6053C59.2259 21.9191 58.8968 22.1963 58.5377 22.4308C58.5377 22.4308 58.5377 22.4308 58.9749 21.8079C59.1105 21.5903 59.201 21.3501 59.3367 21.125C59.4476 20.9116 59.5843 20.7125 59.7437 20.5322L59.9246 20.2695C60.0879 20.1392 60.2302 19.9848 60.3467 19.8117C60.5804 19.444 60.7538 19.0613 60.9724 18.6711V18.7236V18.641C61.0553 18.4384 61.1156 18.2283 61.206 18.0332C61.2283 18.0118 61.2462 17.9863 61.2588 17.9581C61.2588 18.1007 61.0628 18.7086 61.0628 18.7086L60.9874 18.9112L61.0553 18.9262Z" fill="white"/>
<path d="M50.7513 6.19116L50.397 6.28872C50.0295 6.43304 49.6741 6.60619 49.3342 6.80653C49.2814 6.80653 49.2739 6.80653 48.8291 6.88157C48.7236 6.88157 48.6332 6.95662 48.5276 6.97162C48.4221 6.98663 48.3166 6.97162 48.2261 6.97162C48.0196 7.00333 47.822 7.07745 47.6457 7.18925C47.4271 7.32433 47.397 7.32433 47.3744 7.32433C47.3947 7.27443 47.4199 7.22667 47.4498 7.18175C47.7169 6.94978 48.0266 6.7714 48.3618 6.65644C48.4372 6.643 48.5106 6.62031 48.5804 6.5889L49.4925 6.18366C49.4925 6.18366 49.4925 6.18366 49.4925 6.14614C49.5905 5.98104 49.8015 5.98104 50.7437 6.05608C50.7437 6.05608 50.7437 6.05608 50.7437 6.17615C50.7437 6.29623 50.7437 6.17615 50.8116 6.21368L50.7513 6.19116Z" fill="white"/>
<path d="M48.995 7.26427C48.9625 7.28679 48.927 7.30448 48.8894 7.3168C48.8274 7.3329 48.7645 7.34543 48.701 7.35432C48.701 7.35432 48.6407 7.39934 48.603 7.39934C48.5653 7.39934 48.5578 7.39935 48.5276 7.28678L48.6482 7.14419C48.7106 7.11017 48.7763 7.08252 48.8442 7.06165C48.8477 7.07885 48.8572 7.09428 48.871 7.10525C48.8848 7.11622 48.902 7.12203 48.9196 7.12168C48.9799 7.12168 49.0327 7.12168 49.093 7.12168C49.0614 7.17808 49.0176 7.22679 48.9648 7.26427" fill="white"/>
<path d="M48.1809 8.5025C48.1206 8.55503 48.0528 8.57755 47.9925 8.63008C47.9322 8.68261 47.9322 8.73514 47.8718 8.77266C47.7785 8.78575 47.6873 8.81098 47.6005 8.84771C47.6005 8.78767 47.6759 8.71263 47.706 8.65259L47.8266 8.56254C48.0075 8.34491 48.0452 8.35241 48.0754 8.35992C48.1289 8.38705 48.1795 8.41975 48.2261 8.45748C48.2261 8.45748 48.2261 8.45748 48.2261 8.495L48.1809 8.5025Z" fill="white"/>
<path d="M48.3317 8.90026L48.2412 9.00533L48.0904 9.07287H47.8417H47.7362C47.7362 9.02034 47.8266 8.97531 47.8643 8.92278C47.902 8.87025 47.9322 8.81772 47.9698 8.76518C48.0075 8.71265 48.0075 8.76518 48.0377 8.76518C48.0511 8.7739 48.0669 8.77855 48.0829 8.77855C48.099 8.77855 48.1147 8.7739 48.1281 8.76518C48.1754 8.70511 48.2019 8.63138 48.2035 8.55506C48.2035 8.48002 48.2035 8.39747 48.4221 8.17233C48.4673 8.12731 48.5578 8.1198 48.6181 8.09729L48.6633 8.16483L48.6181 8.26239L48.505 8.42748L48.407 8.64511L48.3467 8.81021V8.89276L48.2638 8.97531L48.3317 8.90026Z" fill="white"/>
<path d="M59.8794 15.4892C59.8794 15.0839 59.9322 14.9789 60.0075 14.8963H60.0904C60.1981 15.1034 60.3296 15.2973 60.4824 15.4741C60.5789 15.3607 60.651 15.2289 60.6944 15.0867C60.7377 14.9444 60.7513 14.7949 60.7344 14.6472C60.7174 14.4996 60.6703 14.3569 60.5958 14.2281C60.5214 14.0993 60.4212 13.987 60.3015 13.8982C59.9623 13.568 59.9774 13.4254 60.0829 13.2228C61.0477 13.3354 60.2487 11.3467 60.1734 11.2416L59.4196 10.3186C59.2462 10.1985 58.9146 10.2586 58.8995 9.96589C58.8995 9.96589 58.8995 9.96589 59.1256 10.0935C59.1219 10.0435 59.1219 9.99334 59.1256 9.94338C59.3367 9.94338 59.8794 10.5662 59.8794 10.5738L59.9623 10.5137C59.9623 10.2586 59.5327 9.95839 59.5176 9.93587C59.2839 9.77078 59.2839 9.77078 59.0955 9.40306C59.1558 9.26798 59.1558 9.24547 58.4623 8.51003C58.6078 8.55748 58.7432 8.63126 58.8618 8.72766C58.8618 8.61509 57.9573 7.90968 57.5578 7.97722C57.4009 7.9737 57.248 7.92787 57.1152 7.84461C56.9825 7.76135 56.8749 7.64378 56.804 7.50444C56.902 7.50444 56.9774 7.39187 57.0754 7.36185C56.9652 7.27082 56.8466 7.19041 56.7211 7.12171C57.3051 7.33708 57.8678 7.60589 58.402 7.92468C57.773 7.43599 57.105 6.99927 56.4045 6.61891C56.4494 6.61121 56.4953 6.61121 56.5402 6.61891C56.0653 6.37127 55.6281 6.67895 55.1683 6.65643C55.0025 6.81403 54.7839 6.5964 54.6105 6.73148C54.6143 6.75887 54.6143 6.78664 54.6105 6.81403C54.116 6.81505 53.6237 6.74685 53.1482 6.61141C52.907 6.85906 52.5151 6.90408 52.3945 7.26429C52.3478 7.27873 52.2979 7.27873 52.2512 7.26429C52.108 7.40688 51.9196 7.36936 51.7538 7.42939H51.6784H51.6256L51.5126 7.53445C51.2638 7.4444 51.098 7.21176 50.8417 7.13672L50.6382 7.21927C49.402 8.03725 49.402 8.03725 49.1909 8.32992V8.39746C49.2965 8.39746 49.2965 8.39746 49.4246 8.2924C49.4623 8.47251 49.4246 8.52504 49.2739 8.75768C49.6809 8.91527 50.0276 8.14982 50.0276 8.1273C50.0276 7.89467 50.51 7.71456 50.51 7.71456C49.7563 8.89276 49.7563 8.89276 49.3643 8.93778C49.2739 8.85523 49.2739 8.85523 49.1683 8.84773C49.1683 8.76518 49.2437 8.65261 49.2814 8.57007C49.2854 8.54018 49.2854 8.5099 49.2814 8.48001C49.1683 8.48001 49.1608 8.48001 48.995 8.78019C48.6338 9.04336 48.2278 9.23914 47.7965 9.35803L47.5703 9.39555C47.569 9.42055 47.569 9.4456 47.5703 9.4706C47.6533 9.79329 47.6533 9.79329 47.3216 10.221C46.9523 10.0334 46.9523 10.0334 46.7412 10.101L46.6884 10.221L46.5377 10.4462L46.2663 10.7764L46.1683 11.009L46.3266 11.0841C46.4849 11.2792 46.5829 11.3992 47.0804 11.0165C47.0804 10.9565 47.0804 10.9565 47.6683 10.5587C47.6646 10.5013 47.6646 10.4436 47.6683 10.3861C47.7136 10.3861 47.7136 10.3861 48.1206 10.3861L48.2789 10.2961C48.4104 10.5376 48.5238 10.7884 48.6181 11.0465C48.5653 11.1891 48.5653 11.1891 48.1809 11.2416C48.2337 11.3617 48.2337 11.3617 48.4221 11.4893L48.5427 11.2567C48.7839 11.0315 48.7839 11.0315 48.7915 10.919H48.9121C48.9179 10.8892 48.9179 10.8586 48.9121 10.8289C48.5729 10.2811 48.5729 10.2811 48.6332 10.0785H48.7085C48.7417 10.124 48.772 10.1716 48.799 10.221C48.9443 10.4871 49.0292 10.7817 49.0477 11.0841C49.0534 11.2431 49.0735 11.4014 49.108 11.5568C49.4322 11.6844 49.3794 11.1666 49.5151 10.964C49.5873 10.9705 49.6569 10.9936 49.7186 11.0315C49.8543 11.7294 49.8543 11.7294 50.0879 11.7069C50.1332 11.7069 50.706 11.7595 50.7739 11.8645C50.51 12.9527 50.51 12.9527 50.5779 13.1478C50.5779 13.1478 51.9196 16.1495 52.2437 15.9544C53.2311 15.3766 54.897 14.401 53.9623 13.9282C53.8862 13.9053 53.8079 13.8903 53.7286 13.8832C53.5176 13.5605 53.1859 13.8832 52.9296 13.7932C52.9296 13.3879 52.2437 13.3279 52.4171 12.8551C52.5829 12.8176 52.6432 12.9001 52.711 13.0652C52.7789 13.2143 52.8989 13.3338 53.0486 13.4015C53.1984 13.4691 53.3677 13.4803 53.5251 13.4329C53.5251 13.4329 53.5251 13.3804 53.5251 13.3579C53.5622 13.4336 53.605 13.5064 53.6533 13.5755C54.0649 13.6707 54.4929 13.6707 54.9045 13.5755C54.9874 13.5755 55.0327 13.5755 55.2588 13.8607C55.4849 14.1459 55.5452 14.2509 56.0126 14.2509C56.5854 15.9019 56.9472 16.3447 57.1583 16.4347C57.3052 16.3261 57.4135 16.1736 57.4673 15.9995C57.5804 15.6092 57.1507 15.2115 57.4673 14.8213C57.6913 14.5263 57.8389 14.1809 57.897 13.8157C58.3869 13.2603 58.7487 13.8607 58.9749 14.4686C59.0653 14.7162 59.1935 14.6111 59.2538 14.5211C59.4497 14.5961 59.608 14.9789 59.691 15.3316C59.6951 15.374 59.6951 15.4167 59.691 15.4591C59.691 15.4591 59.691 15.5117 59.691 15.5342C59.691 15.5567 59.691 15.5867 59.691 15.6167C59.691 15.6467 59.691 15.6693 59.691 15.6918C59.691 15.7143 59.691 15.7368 59.691 15.7593C59.691 15.7818 59.691 15.7968 59.691 15.8193C60.3618 16.84 60.3618 16.84 60.3693 16.84C60.4296 16.2921 59.9548 15.9694 59.8116 15.5117L59.8794 15.4892ZM48.8291 10.1535V10.191C48.8291 10.191 48.8291 10.191 48.8291 10.1535Z" fill="white"/>
<path d="M60.3015 10.0034C60.3015 10.0635 60.3015 10.1235 60.3015 10.1835C60.3015 10.2436 60.3844 10.3036 60.3995 10.3787C60.4146 10.4537 60.3467 10.5137 60.3618 10.5813C60.3769 10.6488 60.4975 10.7539 60.4598 10.8739C60.3317 10.8739 59.9472 10.2961 60.0302 10.1235C60.0302 10.1235 60.0302 10.086 60.0302 10.071C59.9792 9.90186 59.9057 9.74033 59.8116 9.59069C59.6648 9.44564 59.5087 9.31027 59.3442 9.18545C59.2331 9.0835 59.1274 8.97579 59.0276 8.86276C58.9673 8.80272 58.9673 8.78771 58.9673 8.78021C58.9673 8.7727 59.1181 8.88527 59.1859 8.78021C59.2434 8.79618 59.2955 8.82729 59.3367 8.87026C59.4045 8.95281 59.4347 9.05037 59.495 9.13292C59.6683 9.33554 59.8794 9.50063 60.0603 9.69575L60.3015 9.99593V10.0034Z" fill="white"/>
<path d="M61.3115 18.2133C61.2681 18.2771 61.2044 18.3247 61.1306 18.3483H61.0553L60.701 18.3859C60.701 18.3859 60.701 18.3408 60.6332 18.3333C60.5653 18.3258 60.5502 18.3333 60.5201 18.2958V18.2583C60.4824 18.1757 60.4749 18.0857 60.4296 18.0031C60.3844 17.9206 60.2563 17.778 60.1884 17.6504C60.1206 17.5229 60.098 17.3953 60.0678 17.3052C59.982 16.9799 59.801 16.6873 59.5477 16.4647C59.5477 16.3747 59.5477 16.3371 59.6231 16.3146C59.8794 16.3146 60.3769 16.87 60.3769 16.96L60.6407 17.4928C60.6602 17.6071 60.6602 17.7238 60.6407 17.838C60.6407 18.0482 60.6407 18.0482 60.7914 18.0932C60.8113 18.098 60.8319 18.098 60.8518 18.0932C60.8518 18.0932 60.897 18.0557 60.9196 18.0407C60.9387 18.0262 60.9607 18.016 60.9841 18.0108C61.0075 18.0056 61.0318 18.0056 61.0553 18.0106C61.108 18.0106 61.1759 17.9731 61.2211 17.9581C61.3342 18.1757 61.3266 18.1757 61.3115 18.2058V18.2133Z" fill="white"/>
<path d="M61.6357 15.4966C61.6287 15.6116 61.6287 15.7269 61.6357 15.8418C61.6361 15.9687 61.6538 16.095 61.6884 16.2171C61.7078 16.2608 61.7177 16.3081 61.7177 16.3559C61.7177 16.4037 61.7078 16.451 61.6884 16.4947L61.5528 16.9225V17.0425C61.5574 17.0546 61.5574 17.068 61.5528 17.0801V17.1626C61.5528 17.3352 61.5528 17.3652 61.5528 17.3802C61.5528 17.3953 61.2287 17.4928 61.1683 17.4253C61.052 17.1506 61.0054 16.8516 61.0327 16.5548C61.0327 16.5172 61.0327 16.4947 61.1156 16.4422C61.1908 16.3574 61.2519 16.2611 61.2965 16.157C61.2965 16.157 61.2965 16.157 61.5452 15.309C61.7337 15.4066 61.7337 15.4591 61.7337 15.4891L61.6357 15.4966Z" fill="white"/>
<path d="M61.6206 14.0633C61.5731 14.037 61.5225 14.0168 61.4698 14.0033C61.4377 14.0001 61.4068 13.9897 61.3793 13.9728C61.3519 13.9559 61.3287 13.9329 61.3116 13.9057C61.3116 13.8156 61.1231 13.2378 61.1231 13.2378C61.1264 13.192 61.142 13.1479 61.1683 13.1102L61.2889 13.2228C61.3006 13.2747 61.3006 13.3285 61.2889 13.3804C61.3011 13.5337 61.3475 13.6824 61.4246 13.8156C61.4246 13.8156 61.4774 13.8156 61.4849 13.8156H61.5452C61.6357 13.8982 61.6131 13.9807 61.5904 14.0708L61.6206 14.0633Z" fill="white"/>
<path d="M52.9372 20.9599C52.8361 21.1448 52.7455 21.3352 52.6658 21.5302C52.6691 21.5626 52.6691 21.5953 52.6658 21.6278L52.3643 22.3332C52.3643 22.3332 52.3643 22.3332 52.0779 22.4608C51.9746 22.4535 51.8778 22.408 51.8065 22.3332C51.7684 22.1848 51.7382 22.0345 51.7161 21.8829C51.7839 21.8379 51.9121 21.7478 51.9347 21.6428C51.9573 21.5377 51.8593 21.3426 51.9347 21.1925C52.0101 21.0424 51.9799 21.095 52.1985 21.0199C52.4171 20.9449 52.4623 20.9148 52.6809 20.6072L52.7638 20.412C52.8844 20.5696 53.0201 20.7873 52.9523 20.9599H52.9372Z" fill="white"/>
<path d="M53.0879 16.5098C52.9104 16.9191 52.7039 17.3153 52.4698 17.6955C52.2437 18.0031 51.9045 18.1832 51.6633 18.4459C51.4221 18.7086 50.9095 19.3389 51.3392 19.9468C51.4958 20.2197 51.5417 20.5419 51.4673 20.8473C51.3467 21.2526 50.8417 21.14 50.6457 21.4477C50.4497 21.7554 50.7814 21.8604 50.6457 22.0705C50.3926 22.4874 50.1105 22.8861 49.8015 23.2637C49.6257 23.347 49.4346 23.3933 49.2401 23.3997C49.0456 23.4062 48.8518 23.3727 48.6709 23.3013L47.2839 21.0499C47.1106 20.6297 47.4573 20.2395 47.3518 19.8192L47.1709 19.1813C47.005 18.7686 46.5829 18.4759 46.6206 17.9731C46.6809 17.1401 46.6809 17.1401 46.2739 17.0501C46.1947 16.8886 46.096 16.7374 45.9799 16.5998C45.7312 16.5248 45.5729 16.7874 45.3392 16.7499C45.3167 16.7531 45.2939 16.7531 45.2714 16.7499C45.1809 16.7499 45.1281 16.6298 45.0377 16.5923C44.8342 16.5098 44.5327 16.6749 44.4196 16.3972C44.3065 16.1195 44.3065 16.1946 44.201 16.142C44.0122 15.8688 43.8918 15.5546 43.8498 15.2256C43.8079 14.8966 43.8456 14.5624 43.9598 14.2509C44.6005 12.75 44.6005 12.75 46.2739 11.2041C46.8392 11.3167 47.4121 11.1441 47.9774 11.2041H48.0452C48.0421 11.224 48.0421 11.2443 48.0452 11.2642C48.098 11.4968 47.7889 11.6319 47.8719 11.872C47.9548 12.1122 48.2638 12.0596 48.294 12.3148C48.4169 12.3363 48.5315 12.3908 48.6256 12.4724C48.7236 12.4724 48.799 12.4198 48.7538 12.2397C49.2588 11.9471 49.8543 12.5474 49.8618 12.5474C50.2312 12.4574 50.2312 12.4574 50.2387 12.4724C50.4497 12.7425 50.3668 13.0877 50.495 13.3804C50.627 13.8653 50.8141 14.3336 51.0528 14.7762C51.0972 14.8625 51.1229 14.9571 51.1281 15.0539C51.1884 15.5342 52.0025 16.2396 52.01 16.2471C52.1608 16.3372 52.1608 16.3372 53.0804 16.052C53.0993 16.214 53.0993 16.3777 53.0804 16.5398L53.0879 16.5098Z" fill="white"/>
<path d="M52.0854 0C47.9852 0 44.053 1.62161 41.1537 4.50809C38.2544 7.39458 36.6256 11.3095 36.6256 15.3916C36.6256 24.8772 52.0854 40.5239 52.0854 40.5239C52.0854 40.5239 67.5528 25.1624 67.5528 15.3916C67.5508 11.3088 65.9203 7.39391 63.0198 4.50764C60.1194 1.62137 56.1863 -4.84811e-07 52.0854 0ZM52.0854 25.7102C50.0204 25.7043 48.0036 25.0892 46.2895 23.9427C44.5754 22.7962 43.2411 21.1697 42.455 19.2686C41.6689 17.3676 41.4663 15.2772 41.8728 13.2615C42.2793 11.2459 43.2766 9.3954 44.7389 7.94378C46.2012 6.49215 48.0627 5.50452 50.0885 5.10561C52.1142 4.70671 54.2133 4.91443 56.1205 5.70255C58.0277 6.49066 59.6576 7.82381 60.8042 9.53361C61.9508 11.2434 62.5628 13.2532 62.5628 15.309C62.5638 16.6778 62.2933 18.0332 61.7667 19.2975C61.2402 20.5618 60.468 21.7102 59.4945 22.6766C58.5209 23.643 57.3653 24.4085 56.0938 24.9291C54.8224 25.4497 53.4602 25.7151 52.0854 25.7102Z" fill="white"/>
<path d="M4.34829 54.6762C3.93406 55.0904 3.4516 55.2975 2.90091 55.2975C2.55978 55.2975 2.23814 55.2293 1.93599 55.0929C1.63872 54.9564 1.378 54.7688 1.15382 54.53C0.934522 54.2912 0.759082 54.011 0.627502 53.6893C0.500795 53.3628 0.437442 53.0119 0.437442 52.6367C0.437442 52.2809 0.500795 51.9471 0.627502 51.6352C0.759082 51.3185 0.936958 51.0431 1.16113 50.8092C1.39018 50.5704 1.65821 50.3828 1.96523 50.2463C2.27225 50.105 2.60608 50.0343 2.9667 50.0343C3.45404 50.0343 3.87071 50.1367 4.21671 50.3414C4.56759 50.546 4.83075 50.8214 5.00619 51.1674L4.25326 51.7229C4.12168 51.4647 3.9365 51.2673 3.6977 51.1308C3.46378 50.9944 3.20793 50.9262 2.93015 50.9262C2.71085 50.9262 2.50861 50.9725 2.32342 51.065C2.14311 51.1576 1.98716 51.2843 1.85558 51.4452C1.72888 51.606 1.62897 51.7912 1.55587 52.0007C1.48765 52.2103 1.45353 52.432 1.45353 52.6659C1.45353 52.9096 1.49252 53.1386 1.57049 53.3531C1.64847 53.5626 1.75568 53.7454 1.89213 53.9013C2.02859 54.0573 2.18941 54.1815 2.37459 54.2741C2.56465 54.3619 2.76933 54.4057 2.98863 54.4057C3.49059 54.4057 3.94381 54.1694 4.34829 53.6966V53.3311H3.30296V52.5928H5.18163V55.261H4.34829V54.6762ZM5.93902 49.9247H6.91856V54.0329C6.91856 54.1742 6.95267 54.2839 7.0209 54.3619C7.08912 54.4398 7.18659 54.4788 7.3133 54.4788C7.37178 54.4788 7.43513 54.4691 7.50336 54.4496C7.57646 54.4301 7.64468 54.4057 7.70804 54.3765L7.83962 55.1221C7.70804 55.1854 7.55453 55.2342 7.37909 55.2683C7.20365 55.3024 7.04526 55.3195 6.90394 55.3195C6.59692 55.3195 6.35812 55.2391 6.18756 55.0782C6.02186 54.9125 5.93902 54.6786 5.93902 54.3765V49.9247ZM10.0354 55.3341C9.72352 55.3341 9.4433 55.2805 9.19476 55.1733C8.94622 55.0661 8.73423 54.9223 8.55879 54.742C8.38823 54.5568 8.25665 54.3448 8.16405 54.106C8.07146 53.8672 8.02516 53.6162 8.02516 53.3531C8.02516 53.085 8.07146 52.8316 8.16405 52.5928C8.25665 52.354 8.38823 52.1445 8.55879 51.9642C8.73423 51.779 8.94622 51.6328 9.19476 51.5256C9.4433 51.4184 9.72352 51.3648 10.0354 51.3648C10.3473 51.3648 10.6251 51.4184 10.8688 51.5256C11.1173 51.6328 11.3268 51.779 11.4974 51.9642C11.6729 52.1445 11.8069 52.354 11.8995 52.5928C11.9921 52.8316 12.0384 53.085 12.0384 53.3531C12.0384 53.6162 11.9921 53.8672 11.8995 54.106C11.8069 54.3448 11.6753 54.5568 11.5047 54.742C11.3342 54.9223 11.1246 55.0661 10.8761 55.1733C10.6275 55.2805 10.3473 55.3341 10.0354 55.3341ZM9.03394 53.3531C9.03394 53.5236 9.05831 53.6796 9.10704 53.8209C9.16065 53.9574 9.23131 54.0768 9.31903 54.1791C9.41163 54.2814 9.51884 54.3619 9.64067 54.4203C9.76251 54.4739 9.89409 54.5007 10.0354 54.5007C10.1767 54.5007 10.3083 54.4739 10.4302 54.4203C10.552 54.3619 10.6568 54.2814 10.7445 54.1791C10.8371 54.0768 10.9077 53.9549 10.9565 53.8136C11.0101 53.6723 11.0369 53.5163 11.0369 53.3458C11.0369 53.1801 11.0101 53.0266 10.9565 52.8852C10.9077 52.7439 10.8371 52.6221 10.7445 52.5197C10.6568 52.4174 10.552 52.3394 10.4302 52.2858C10.3083 52.2273 10.1767 52.1981 10.0354 52.1981C9.89409 52.1981 9.76251 52.2273 9.64067 52.2858C9.51884 52.3443 9.41163 52.4247 9.31903 52.527C9.23131 52.6294 9.16065 52.7512 9.10704 52.8925C9.05831 53.0339 9.03394 53.1874 9.03394 53.3531ZM14.8779 55.3341C14.5855 55.3341 14.3248 55.2683 14.0957 55.1367C13.8667 55.0051 13.6864 54.8248 13.5548 54.5958V55.261H12.6995V49.9247H13.679V52.1031C13.8155 51.8691 13.9934 51.6888 14.2127 51.5621C14.4369 51.4305 14.6976 51.3648 14.9948 51.3648C15.2434 51.3648 15.47 51.4184 15.6747 51.5256C15.8794 51.6328 16.0548 51.7766 16.201 51.9569C16.3521 52.1372 16.4666 52.3492 16.5446 52.5928C16.6274 52.8365 16.6688 53.0924 16.6688 53.3604C16.6688 53.6382 16.6225 53.8965 16.5299 54.1352C16.4422 54.374 16.318 54.5836 16.1571 54.7639C15.9963 54.9393 15.8063 55.0782 15.587 55.1806C15.3677 55.2829 15.1313 55.3341 14.8779 55.3341ZM14.6074 54.5007C14.7634 54.5007 14.9071 54.4715 15.0387 54.413C15.1703 54.3497 15.2824 54.2668 15.375 54.1645C15.4676 54.0621 15.5382 53.9427 15.587 53.8063C15.6406 53.6698 15.6674 53.5236 15.6674 53.3677C15.6674 53.2117 15.643 53.0631 15.5943 52.9218C15.5455 52.7805 15.4749 52.6562 15.3823 52.549C15.2946 52.4418 15.1898 52.3565 15.0679 52.2931C14.9461 52.2298 14.8121 52.1981 14.6659 52.1981C14.4466 52.1981 14.2492 52.2712 14.0738 52.4174C13.9032 52.5587 13.7716 52.7342 13.679 52.9437V53.8575C13.7132 53.9549 13.7619 54.0427 13.8252 54.1206C13.8935 54.1986 13.969 54.2668 14.0519 54.3253C14.1347 54.3789 14.2249 54.4228 14.3223 54.4569C14.4198 54.4861 14.5148 54.5007 14.6074 54.5007ZM18.3778 55.3341C18.1927 55.3341 18.0196 55.3048 17.8588 55.2464C17.698 55.183 17.5591 55.0977 17.4422 54.9905C17.3252 54.8784 17.2326 54.7493 17.1644 54.6031C17.101 54.4569 17.0693 54.2961 17.0693 54.1206C17.0693 53.9403 17.1083 53.7746 17.1863 53.6235C17.2692 53.4676 17.3812 53.336 17.5226 53.2288C17.6688 53.1216 17.8418 53.0387 18.0416 52.9803C18.2414 52.9169 18.4607 52.8852 18.6995 52.8852C18.87 52.8852 19.0357 52.8999 19.1966 52.9291C19.3623 52.9583 19.5085 52.9998 19.6352 53.0534V52.8341C19.6352 52.5807 19.5621 52.3857 19.4159 52.2493C19.2745 52.1128 19.0625 52.0446 18.7799 52.0446C18.5752 52.0446 18.3754 52.0811 18.1805 52.1542C17.9855 52.2273 17.7857 52.3345 17.581 52.4759L17.2813 51.8545C17.7735 51.528 18.3047 51.3648 18.8749 51.3648C19.4256 51.3648 19.852 51.5012 20.1542 51.7741C20.4612 52.0421 20.6147 52.432 20.6147 52.9437V54.1352C20.6147 54.2376 20.6318 54.3107 20.6659 54.3545C20.7049 54.3984 20.7658 54.4228 20.8486 54.4276V55.261C20.6829 55.2951 20.5392 55.3122 20.4173 55.3122C20.2321 55.3122 20.0884 55.2707 19.986 55.1879C19.8886 55.105 19.8277 54.9954 19.8033 54.8589L19.7814 54.6469C19.6108 54.8711 19.4037 55.0417 19.16 55.1586C18.9163 55.2756 18.6556 55.3341 18.3778 55.3341ZM18.6556 54.6177C18.8213 54.6177 18.9773 54.5885 19.1235 54.53C19.2745 54.4715 19.3915 54.3935 19.4743 54.2961C19.5816 54.2132 19.6352 54.1206 19.6352 54.0183V53.5797C19.5182 53.5358 19.3915 53.5017 19.255 53.4773C19.1186 53.4481 18.987 53.4335 18.8603 53.4335C18.6069 53.4335 18.3998 53.492 18.2389 53.6089C18.0781 53.721 17.9977 53.8648 17.9977 54.0402C17.9977 54.2059 18.0611 54.3448 18.1878 54.4569C18.3145 54.5641 18.4704 54.6177 18.6556 54.6177ZM21.5227 49.9247H22.5023V54.0329C22.5023 54.1742 22.5364 54.2839 22.6046 54.3619C22.6728 54.4398 22.7703 54.4788 22.897 54.4788C22.9555 54.4788 23.0189 54.4691 23.0871 54.4496C23.1602 54.4301 23.2284 54.4057 23.2918 54.3765L23.4233 55.1221C23.2918 55.1854 23.1382 55.2342 22.9628 55.2683C22.7874 55.3024 22.629 55.3195 22.4877 55.3195C22.1806 55.3195 21.9418 55.2391 21.7713 55.0782C21.6056 54.9125 21.5227 54.6786 21.5227 54.3765V49.9247ZM23.9451 55.261V50.0709H26.2405C26.4793 50.0709 26.6986 50.1221 26.8984 50.2244C27.1031 50.3219 27.2785 50.4534 27.4247 50.6191C27.5709 50.78 27.6854 50.9651 27.7683 51.1747C27.8511 51.3794 27.8925 51.5865 27.8925 51.796C27.8925 52.1323 27.8073 52.4393 27.6367 52.7171C27.471 52.99 27.2444 53.1874 26.9569 53.3092L28.1411 55.261H27.008L25.9481 53.5212H24.9539V55.261H23.9451ZM24.9539 52.6367H26.2186C26.3111 52.6367 26.3964 52.6148 26.4744 52.5709C26.5573 52.527 26.6279 52.4686 26.6864 52.3955C26.7449 52.3175 26.7912 52.2273 26.8253 52.125C26.8594 52.0227 26.8765 51.913 26.8765 51.796C26.8765 51.6742 26.857 51.5621 26.818 51.4598C26.779 51.3574 26.7254 51.2697 26.6572 51.1966C26.5938 51.1187 26.5183 51.0602 26.4305 51.0212C26.3477 50.9773 26.2624 50.9554 26.1747 50.9554H24.9539V52.6367ZM30.3808 55.3341C30.0738 55.3341 29.796 55.2829 29.5475 55.1806C29.2989 55.0734 29.0869 54.9296 28.9115 54.7493C28.736 54.569 28.5996 54.3594 28.5021 54.1206C28.4095 53.8818 28.3632 53.6309 28.3632 53.3677C28.3632 53.0948 28.4095 52.8389 28.5021 52.6001C28.5947 52.3565 28.7287 52.1445 28.9042 51.9642C29.0796 51.779 29.2916 51.6328 29.5401 51.5256C29.7936 51.4184 30.0762 51.3648 30.3881 51.3648C30.7 51.3648 30.9778 51.4184 31.2214 51.5256C31.47 51.6328 31.6795 51.7766 31.8501 51.9569C32.0255 52.1372 32.1571 52.3467 32.2448 52.5855C32.3374 52.8243 32.3837 53.0729 32.3837 53.3311C32.3837 53.3945 32.3813 53.4554 32.3764 53.5139C32.3764 53.5724 32.3716 53.6211 32.3618 53.6601H29.4013C29.4159 53.8112 29.4524 53.9452 29.5109 54.0621C29.5694 54.1791 29.6449 54.279 29.7375 54.3619C29.8301 54.4447 29.9349 54.5081 30.0518 54.5519C30.1688 54.5958 30.2906 54.6177 30.4173 54.6177C30.6123 54.6177 30.795 54.5714 30.9656 54.4788C31.141 54.3813 31.2604 54.2546 31.3238 54.0987L32.1644 54.3326C32.0231 54.625 31.7965 54.8662 31.4846 55.0563C31.1776 55.2415 30.8097 55.3341 30.3808 55.3341ZM31.375 53.0241C31.3506 52.7366 31.2434 52.5076 31.0533 52.337C30.8681 52.1615 30.6415 52.0738 30.3735 52.0738C30.2419 52.0738 30.1176 52.0982 30.0007 52.1469C29.8886 52.1908 29.7887 52.2541 29.701 52.337C29.6132 52.4198 29.5401 52.5197 29.4817 52.6367C29.4281 52.7537 29.3964 52.8828 29.3866 53.0241H31.375ZM34.0258 55.3341C33.8406 55.3341 33.6676 55.3048 33.5068 55.2464C33.346 55.183 33.2071 55.0977 33.0901 54.9905C32.9732 54.8784 32.8806 54.7493 32.8123 54.6031C32.749 54.4569 32.7173 54.2961 32.7173 54.1206C32.7173 53.9403 32.7563 53.7746 32.8343 53.6235C32.9171 53.4676 33.0292 53.336 33.1705 53.2288C33.3167 53.1216 33.4897 53.0387 33.6895 52.9803C33.8894 52.9169 34.1087 52.8852 34.3474 52.8852C34.518 52.8852 34.6837 52.8999 34.8445 52.9291C35.0102 52.9583 35.1564 52.9998 35.2831 53.0534V52.8341C35.2831 52.5807 35.21 52.3857 35.0638 52.2493C34.9225 52.1128 34.7105 52.0446 34.4279 52.0446C34.2232 52.0446 34.0234 52.0811 33.8284 52.1542C33.6335 52.2273 33.4337 52.3345 33.229 52.4759L32.9293 51.8545C33.4215 51.528 33.9527 51.3648 34.5229 51.3648C35.0736 51.3648 35.5 51.5012 35.8021 51.7741C36.1092 52.0421 36.2627 52.432 36.2627 52.9437V54.1352C36.2627 54.2376 36.2797 54.3107 36.3138 54.3545C36.3528 54.3984 36.4137 54.4228 36.4966 54.4276V55.261C36.3309 55.2951 36.1871 55.3122 36.0653 55.3122C35.8801 55.3122 35.7363 55.2707 35.634 55.1879C35.5365 55.105 35.4756 54.9954 35.4513 54.8589L35.4293 54.6469C35.2588 54.8711 35.0516 55.0417 34.808 55.1586C34.5643 55.2756 34.3036 55.3341 34.0258 55.3341ZM34.3036 54.6177C34.4693 54.6177 34.6252 54.5885 34.7714 54.53C34.9225 54.4715 35.0395 54.3935 35.1223 54.2961C35.2295 54.2132 35.2831 54.1206 35.2831 54.0183V53.5797C35.1662 53.5358 35.0395 53.5017 34.903 53.4773C34.7666 53.4481 34.635 53.4335 34.5083 53.4335C34.2549 53.4335 34.0477 53.492 33.8869 53.6089C33.7261 53.721 33.6457 53.8648 33.6457 54.0402C33.6457 54.2059 33.709 54.3448 33.8357 54.4569C33.9625 54.5641 34.1184 54.6177 34.3036 54.6177ZM37.1707 49.9247H38.1502V54.0329C38.1502 54.1742 38.1844 54.2839 38.2526 54.3619C38.3208 54.4398 38.4183 54.4788 38.545 54.4788C38.6035 54.4788 38.6668 54.4691 38.735 54.4496C38.8081 54.4301 38.8764 54.4057 38.9397 54.3765L39.0713 55.1221C38.9397 55.1854 38.7862 55.2342 38.6108 55.2683C38.4353 55.3024 38.277 55.3195 38.1356 55.3195C37.8286 55.3195 37.5898 55.2391 37.4192 55.0782C37.2536 54.9125 37.1707 54.6786 37.1707 54.3765V49.9247ZM43.1969 54.3765V55.261H39.5931V50.0709H43.1312V50.9554H40.6019V52.2054H42.7876V53.0241H40.6019V54.3765H43.1969ZM45.2929 55.3341C44.9713 55.3341 44.6569 55.2829 44.3499 55.1806C44.0429 55.0782 43.7797 54.932 43.5604 54.742L43.9259 54.1279C44.1599 54.2936 44.3865 54.4203 44.6058 54.5081C44.8299 54.5909 45.0517 54.6323 45.271 54.6323C45.4659 54.6323 45.6194 54.5958 45.7315 54.5227C45.8436 54.4496 45.8996 54.3448 45.8996 54.2083C45.8996 54.0719 45.8339 53.972 45.7023 53.9086C45.5707 53.8453 45.3563 53.7722 45.059 53.6893C44.8105 53.6211 44.5985 53.5553 44.423 53.492C44.2476 53.4286 44.1063 53.3579 43.999 53.28C43.8918 53.1971 43.8139 53.1045 43.7651 53.0022C43.7164 52.895 43.692 52.7683 43.692 52.6221C43.692 52.4271 43.7286 52.2517 43.8017 52.0958C43.8796 51.9398 43.9869 51.8082 44.1233 51.701C44.2598 51.5889 44.4182 51.5036 44.5985 51.4452C44.7837 51.3867 44.9835 51.3574 45.1979 51.3574C45.4854 51.3574 45.7534 51.3989 46.002 51.4817C46.2554 51.5646 46.4869 51.6986 46.6964 51.8838L46.3017 52.4759C46.1068 52.3297 45.9167 52.2225 45.7315 52.1542C45.5512 52.086 45.3709 52.0519 45.1906 52.0519C45.0249 52.0519 44.886 52.086 44.7739 52.1542C44.6618 52.2225 44.6058 52.3321 44.6058 52.4832C44.6058 52.5514 44.618 52.6075 44.6423 52.6513C44.6716 52.6952 44.7154 52.7342 44.7739 52.7683C44.8324 52.8024 44.9079 52.8365 45.0005 52.8706C45.098 52.8999 45.2174 52.9315 45.3587 52.9656C45.6219 53.0339 45.846 53.1021 46.0312 53.1703C46.2213 53.2386 46.3748 53.3165 46.4918 53.4042C46.6136 53.492 46.7013 53.5943 46.7549 53.7113C46.8134 53.8234 46.8426 53.9598 46.8426 54.1206C46.8426 54.4959 46.7037 54.7931 46.426 55.0124C46.1482 55.2269 45.7705 55.3341 45.2929 55.3341ZM49.7745 55.0636C49.6429 55.1221 49.4821 55.1806 49.292 55.2391C49.1019 55.2975 48.9021 55.3268 48.6926 55.3268C48.5561 55.3268 48.427 55.3097 48.3051 55.2756C48.1882 55.2415 48.0834 55.1879 47.9908 55.1148C47.9031 55.0368 47.8324 54.9393 47.7788 54.8224C47.7252 54.7006 47.6984 54.5544 47.6984 54.3838V52.1835H47.194V51.4305H47.6984V50.1878H48.678V51.4305H49.4821V52.1835H48.678V54.0548C48.678 54.1913 48.7121 54.2888 48.7803 54.3472C48.8534 54.4008 48.9411 54.4276 49.0435 54.4276C49.1458 54.4276 49.2457 54.4106 49.3432 54.3765C49.4406 54.3424 49.5186 54.3131 49.5771 54.2888L49.7745 55.0636ZM51.3299 55.3341C51.1448 55.3341 50.9718 55.3048 50.8109 55.2464C50.6501 55.183 50.5112 55.0977 50.3943 54.9905C50.2773 54.8784 50.1847 54.7493 50.1165 54.6031C50.0531 54.4569 50.0215 54.2961 50.0215 54.1206C50.0215 53.9403 50.0604 53.7746 50.1384 53.6235C50.2213 53.4676 50.3334 53.336 50.4747 53.2288C50.6209 53.1216 50.7939 53.0387 50.9937 52.9803C51.1935 52.9169 51.4128 52.8852 51.6516 52.8852C51.8222 52.8852 51.9878 52.8999 52.1487 52.9291C52.3144 52.9583 52.4606 52.9998 52.5873 53.0534V52.8341C52.5873 52.5807 52.5142 52.3857 52.368 52.2493C52.2266 52.1128 52.0147 52.0446 51.732 52.0446C51.5273 52.0446 51.3275 52.0811 51.1326 52.1542C50.9376 52.2273 50.7378 52.3345 50.5332 52.4759L50.2334 51.8545C50.7257 51.528 51.2568 51.3648 51.827 51.3648C52.3777 51.3648 52.8041 51.5012 53.1063 51.7741C53.4133 52.0421 53.5668 52.432 53.5668 52.9437V54.1352C53.5668 54.2376 53.5839 54.3107 53.618 54.3545C53.657 54.3984 53.7179 54.4228 53.8007 54.4276V55.261C53.635 55.2951 53.4913 55.3122 53.3694 55.3122C53.1843 55.3122 53.0405 55.2707 52.9381 55.1879C52.8407 55.105 52.7798 54.9954 52.7554 54.8589L52.7335 54.6469C52.5629 54.8711 52.3558 55.0417 52.1121 55.1586C51.8685 55.2756 51.6077 55.3341 51.3299 55.3341ZM51.6077 54.6177C51.7734 54.6177 51.9294 54.5885 52.0756 54.53C52.2266 54.4715 52.3436 54.3935 52.4264 54.2961C52.5337 54.2132 52.5873 54.1206 52.5873 54.0183V53.5797C52.4703 53.5358 52.3436 53.5017 52.2071 53.4773C52.0707 53.4481 51.9391 53.4335 51.8124 53.4335C51.559 53.4335 51.3519 53.492 51.1911 53.6089C51.0302 53.721 50.9498 53.8648 50.9498 54.0402C50.9498 54.2059 51.0132 54.3448 51.1399 54.4569C51.2666 54.5641 51.4225 54.6177 51.6077 54.6177ZM56.7489 55.0636C56.6174 55.1221 56.4565 55.1806 56.2665 55.2391C56.0764 55.2975 55.8766 55.3268 55.6671 55.3268C55.5306 55.3268 55.4015 55.3097 55.2796 55.2756C55.1627 55.2415 55.0579 55.1879 54.9653 55.1148C54.8776 55.0368 54.8069 54.9393 54.7533 54.8224C54.6997 54.7006 54.6729 54.5544 54.6729 54.3838V52.1835H54.1685V51.4305H54.6729V50.1878H55.6524V51.4305H56.4565V52.1835H55.6524V54.0548C55.6524 54.1913 55.6866 54.2888 55.7548 54.3472C55.8279 54.4008 55.9156 54.4276 56.0179 54.4276C56.1203 54.4276 56.2202 54.4106 56.3177 54.3765C56.4151 54.3424 56.4931 54.3131 56.5516 54.2888L56.7489 55.0636ZM58.9426 55.3341C58.6356 55.3341 58.3578 55.2829 58.1093 55.1806C57.8607 55.0734 57.6488 54.9296 57.4733 54.7493C57.2979 54.569 57.1614 54.3594 57.064 54.1206C56.9714 53.8818 56.9251 53.6309 56.9251 53.3677C56.9251 53.0948 56.9714 52.8389 57.064 52.6001C57.1565 52.3565 57.2906 52.1445 57.466 51.9642C57.6414 51.779 57.8534 51.6328 58.102 51.5256C58.3554 51.4184 58.638 51.3648 58.9499 51.3648C59.2618 51.3648 59.5396 51.4184 59.7833 51.5256C60.0318 51.6328 60.2414 51.7766 60.4119 51.9569C60.5874 52.1372 60.719 52.3467 60.8067 52.5855C60.8993 52.8243 60.9456 53.0729 60.9456 53.3311C60.9456 53.3945 60.9431 53.4554 60.9383 53.5139C60.9383 53.5724 60.9334 53.6211 60.9236 53.6601H57.9631C57.9777 53.8112 58.0143 53.9452 58.0727 54.0621C58.1312 54.1791 58.2068 54.279 58.2993 54.3619C58.3919 54.4447 58.4967 54.5081 58.6137 54.5519C58.7306 54.5958 58.8525 54.6177 58.9792 54.6177C59.1741 54.6177 59.3569 54.5714 59.5274 54.4788C59.7029 54.3813 59.8223 54.2546 59.8856 54.0987L60.7263 54.3326C60.5849 54.625 60.3583 54.8662 60.0464 55.0563C59.7394 55.2415 59.3715 55.3341 58.9426 55.3341ZM59.9368 53.0241C59.9124 52.7366 59.8052 52.5076 59.6151 52.337C59.43 52.1615 59.2033 52.0738 58.9353 52.0738C58.8037 52.0738 58.6795 52.0982 58.5625 52.1469C58.4504 52.1908 58.3505 52.2541 58.2628 52.337C58.1751 52.4198 58.102 52.5197 58.0435 52.6367C57.9899 52.7537 57.9582 52.8828 57.9485 53.0241H59.9368ZM63.0283 50.0709H63.9201L65.8938 55.261H64.8558L64.3733 53.9671H62.5604L62.0853 55.261H61.0473L63.0283 50.0709ZM64.1906 53.258L63.4742 51.2186L62.7286 53.258H64.1906ZM66.0269 53.3458C66.0269 53.0777 66.0732 52.8243 66.1658 52.5855C66.2584 52.3467 66.3924 52.1372 66.5678 51.9569C66.7432 51.7766 66.9552 51.6328 67.2038 51.5256C67.4523 51.4184 67.7325 51.3648 68.0444 51.3648C68.4635 51.3648 68.8193 51.4549 69.1117 51.6352C69.409 51.8155 69.6307 52.0519 69.7769 52.3443L68.8193 52.6367C68.7364 52.4954 68.6268 52.3882 68.4903 52.3151C68.3539 52.2371 68.2028 52.1981 68.0371 52.1981C67.8958 52.1981 67.7642 52.2273 67.6424 52.2858C67.5205 52.3394 67.4133 52.4174 67.3207 52.5197C67.233 52.6172 67.1624 52.7366 67.1087 52.8779C67.06 53.0193 67.0356 53.1752 67.0356 53.3458C67.0356 53.5163 67.0625 53.6723 67.1161 53.8136C67.1697 53.9549 67.2403 54.0768 67.328 54.1791C67.4206 54.2814 67.5279 54.3619 67.6497 54.4203C67.7715 54.4739 67.9007 54.5007 68.0371 54.5007C68.2126 54.5007 68.3734 54.4569 68.5196 54.3692C68.6707 54.2814 68.7754 54.1742 68.8339 54.0475L69.7915 54.3399C69.6599 54.6323 69.4431 54.8711 69.1409 55.0563C68.8388 55.2415 68.4757 55.3341 68.0517 55.3341C67.7398 55.3341 67.4596 55.2805 67.2111 55.1733C66.9625 55.0661 66.7506 54.9223 66.5751 54.742C66.3997 54.5568 66.2632 54.3448 66.1658 54.106C66.0732 53.8623 66.0269 53.6089 66.0269 53.3458ZM71.7988 55.3341C71.5551 55.3341 71.331 55.2829 71.1263 55.1806C70.9216 55.0734 70.7437 54.9296 70.5926 54.7493C70.4464 54.569 70.3319 54.3594 70.2491 54.1206C70.1662 53.877 70.1248 53.6162 70.1248 53.3385C70.1248 53.0607 70.1687 52.8024 70.2564 52.5636C70.349 52.3248 70.4757 52.1177 70.6365 51.9422C70.7973 51.7619 70.9874 51.6206 71.2067 51.5183C71.426 51.4159 71.6623 51.3648 71.9158 51.3648C72.2082 51.3648 72.4664 51.433 72.6906 51.5694C72.9148 51.701 73.0975 51.8765 73.2389 52.0958V51.4305H74.0941V55.6411C74.0941 55.7483 74.1136 55.8214 74.1526 55.8604C74.1916 55.9043 74.2598 55.9286 74.3573 55.9335V56.7668C74.2745 56.7815 74.1843 56.7912 74.0868 56.7961C73.9894 56.8058 73.9016 56.8107 73.8237 56.8107C73.7262 56.8107 73.6336 56.7936 73.5459 56.7595C73.463 56.7254 73.3899 56.6791 73.3266 56.6206C73.2632 56.5622 73.2121 56.4915 73.1731 56.4087C73.1341 56.3307 73.1146 56.243 73.1146 56.1455V54.5885C72.9733 54.837 72.7905 55.0246 72.5664 55.1513C72.3422 55.2732 72.0863 55.3341 71.7988 55.3341ZM72.1643 54.5007C72.3739 54.5007 72.5566 54.4423 72.7125 54.3253C72.8685 54.2083 73.0025 54.0573 73.1146 53.8721V52.9656C73.0854 52.8584 73.0366 52.7585 72.9684 52.6659C72.905 52.5733 72.8295 52.4929 72.7418 52.4247C72.6541 52.3516 72.559 52.2956 72.4567 52.2566C72.3544 52.2176 72.252 52.1981 72.1497 52.1981C71.9986 52.1981 71.8597 52.2298 71.733 52.2931C71.6112 52.3565 71.504 52.4442 71.4114 52.5563C71.3237 52.6635 71.253 52.7878 71.1994 52.9291C71.1506 53.0704 71.1263 53.2166 71.1263 53.3677C71.1263 53.5285 71.1506 53.6772 71.1994 53.8136C71.253 53.9501 71.3237 54.0695 71.4114 54.1718C71.504 54.2741 71.6136 54.3545 71.7403 54.413C71.867 54.4715 72.0084 54.5007 72.1643 54.5007ZM76.154 55.3341C75.7593 55.3341 75.4596 55.2074 75.2549 54.954C75.0502 54.7006 74.9479 54.3253 74.9479 53.8282V51.4305H75.9274V53.6162C75.9274 54.2059 76.1394 54.5007 76.5634 54.5007C76.7534 54.5007 76.9362 54.4447 77.1116 54.3326C77.2919 54.2157 77.4381 54.0402 77.5502 53.8063V51.4305H78.5298V54.1352C78.5298 54.2376 78.5468 54.3107 78.5809 54.3545C78.6199 54.3984 78.6808 54.4228 78.7637 54.4276V55.261C78.6662 55.2805 78.5834 55.2927 78.5152 55.2975C78.4518 55.3024 78.3933 55.3048 78.3397 55.3048C78.1643 55.3048 78.0205 55.2659 77.9084 55.1879C77.8012 55.105 77.7379 54.993 77.7184 54.8516L77.6964 54.5446C77.5259 54.8078 77.3066 55.0051 77.0385 55.1367C76.7705 55.2683 76.4757 55.3341 76.154 55.3341ZM79.5032 55.261V51.4305H80.4827V55.261H79.5032ZM79.5032 50.8969V49.9247H80.4827V50.8969H79.5032ZM82.8138 55.3341C82.4921 55.3341 82.1778 55.2829 81.8708 55.1806C81.5638 55.0782 81.3006 54.932 81.0813 54.742L81.4468 54.1279C81.6807 54.2936 81.9073 54.4203 82.1266 54.5081C82.3508 54.5909 82.5725 54.6323 82.7918 54.6323C82.9868 54.6323 83.1403 54.5958 83.2524 54.5227C83.3645 54.4496 83.4205 54.3448 83.4205 54.2083C83.4205 54.0719 83.3547 53.972 83.2231 53.9086C83.0916 53.8453 82.8771 53.7722 82.5799 53.6893C82.3313 53.6211 82.1193 53.5553 81.9439 53.492C81.7684 53.4286 81.6271 53.3579 81.5199 53.28C81.4127 53.1971 81.3347 53.1045 81.286 53.0022C81.2373 52.895 81.2129 52.7683 81.2129 52.6221C81.2129 52.4271 81.2494 52.2517 81.3225 52.0958C81.4005 51.9398 81.5077 51.8082 81.6442 51.701C81.7806 51.5889 81.939 51.5036 82.1193 51.4452C82.3045 51.3867 82.5043 51.3574 82.7187 51.3574C83.0063 51.3574 83.2743 51.3989 83.5228 51.4817C83.7763 51.5646 84.0077 51.6986 84.2173 51.8838L83.8226 52.4759C83.6276 52.3297 83.4376 52.2225 83.2524 52.1542C83.0721 52.086 82.8917 52.0519 82.7114 52.0519C82.5457 52.0519 82.4069 52.086 82.2948 52.1542C82.1827 52.2225 82.1266 52.3321 82.1266 52.4832C82.1266 52.5514 82.1388 52.6075 82.1632 52.6513C82.1924 52.6952 82.2363 52.7342 82.2948 52.7683C82.3532 52.8024 82.4288 52.8365 82.5214 52.8706C82.6188 52.8999 82.7382 52.9315 82.8796 52.9656C83.1427 53.0339 83.3669 53.1021 83.5521 53.1703C83.7421 53.2386 83.8957 53.3165 84.0126 53.4042C84.1344 53.492 84.2222 53.5943 84.2758 53.7113C84.3343 53.8234 84.3635 53.9598 84.3635 54.1206C84.3635 54.4959 84.2246 54.7931 83.9468 55.0124C83.669 55.2269 83.2914 55.3341 82.8138 55.3341ZM85 55.261V51.4305H85.9795V55.261H85ZM85 50.8969V49.9247H85.9795V50.8969H85ZM89.1585 55.0636C89.0269 55.1221 88.8661 55.1806 88.676 55.2391C88.486 55.2975 88.2862 55.3268 88.0766 55.3268C87.9402 55.3268 87.811 55.3097 87.6892 55.2756C87.5722 55.2415 87.4675 55.1879 87.3749 55.1148C87.2871 55.0368 87.2165 54.9393 87.1629 54.8224C87.1093 54.7006 87.0825 54.5544 87.0825 54.3838V52.1835H86.5781V51.4305H87.0825V50.1878H88.062V51.4305H88.8661V52.1835H88.062V54.0548C88.062 54.1913 88.0961 54.2888 88.1643 54.3472C88.2374 54.4008 88.3252 54.4276 88.4275 54.4276C88.5298 54.4276 88.6298 54.4106 88.7272 54.3765C88.8247 54.3424 88.9027 54.3131 88.9611 54.2888L89.1585 55.0636ZM89.6687 55.261V51.4305H90.6482V55.261H89.6687ZM89.6687 50.8969V49.9247H90.6482V50.8969H89.6687ZM93.3009 55.3341C92.989 55.3341 92.7088 55.2805 92.4602 55.1733C92.2117 55.0661 91.9997 54.9223 91.8243 54.742C91.6537 54.5568 91.5221 54.3448 91.4295 54.106C91.3369 53.8672 91.2906 53.6162 91.2906 53.3531C91.2906 53.085 91.3369 52.8316 91.4295 52.5928C91.5221 52.354 91.6537 52.1445 91.8243 51.9642C91.9997 51.779 92.2117 51.6328 92.4602 51.5256C92.7088 51.4184 92.989 51.3648 93.3009 51.3648C93.6128 51.3648 93.8906 51.4184 94.1342 51.5256C94.3828 51.6328 94.5923 51.779 94.7629 51.9642C94.9383 52.1445 95.0723 52.354 95.1649 52.5928C95.2575 52.8316 95.3038 53.085 95.3038 53.3531C95.3038 53.6162 95.2575 53.8672 95.1649 54.106C95.0723 54.3448 94.9408 54.5568 94.7702 54.742C94.5996 54.9223 94.3901 55.0661 94.1415 55.1733C93.893 55.2805 93.6128 55.3341 93.3009 55.3341ZM92.2994 53.3531C92.2994 53.5236 92.3238 53.6796 92.3725 53.8209C92.4261 53.9574 92.4968 54.0768 92.5845 54.1791C92.6771 54.2814 92.7843 54.3619 92.9061 54.4203C93.028 54.4739 93.1596 54.5007 93.3009 54.5007C93.4422 54.5007 93.5738 54.4739 93.6956 54.4203C93.8175 54.3619 93.9222 54.2814 94.01 54.1791C94.1025 54.0768 94.1732 53.9549 94.2219 53.8136C94.2755 53.6723 94.3024 53.5163 94.3024 53.3458C94.3024 53.1801 94.2755 53.0266 94.2219 52.8852C94.1732 52.7439 94.1025 52.6221 94.01 52.5197C93.9222 52.4174 93.8175 52.3394 93.6956 52.2858C93.5738 52.2273 93.4422 52.1981 93.3009 52.1981C93.1596 52.1981 93.028 52.2273 92.9061 52.2858C92.7843 52.3443 92.6771 52.4247 92.5845 52.527C92.4968 52.6294 92.4261 52.7512 92.3725 52.8925C92.3238 53.0339 92.2994 53.1874 92.2994 53.3531ZM99.5249 55.261H98.5454V53.1118C98.5454 52.8048 98.4918 52.5807 98.3846 52.4393C98.2774 52.298 98.1287 52.2273 97.9387 52.2273C97.8412 52.2273 97.7413 52.2468 97.639 52.2858C97.5366 52.3248 97.4392 52.3808 97.3466 52.4539C97.2588 52.5222 97.1784 52.605 97.1053 52.7025C97.0322 52.8 96.9786 52.9072 96.9445 53.0241V55.261H95.965V51.4305H96.8495V52.1396C96.9908 51.8959 97.1955 51.7059 97.4635 51.5694C97.7316 51.433 98.0337 51.3648 98.37 51.3648C98.6088 51.3648 98.8037 51.4086 98.9548 51.4963C99.1058 51.5841 99.2228 51.6986 99.3056 51.8399C99.3885 51.9812 99.4445 52.1421 99.4738 52.3224C99.5079 52.5027 99.5249 52.6854 99.5249 52.8706V55.261ZM105.605 55.261L105.196 54.8297C104.981 54.9954 104.75 55.1221 104.501 55.2098C104.253 55.2927 103.997 55.3341 103.734 55.3341C103.466 55.3341 103.222 55.2927 103.003 55.2098C102.788 55.127 102.606 55.0149 102.454 54.8736C102.303 54.7322 102.186 54.569 102.104 54.3838C102.021 54.1937 101.979 53.9964 101.979 53.7917C101.979 53.6309 102.004 53.4822 102.052 53.3458C102.101 53.2093 102.167 53.085 102.25 52.973C102.337 52.856 102.435 52.7488 102.542 52.6513C102.654 52.5538 102.771 52.4637 102.893 52.3808C102.683 52.1469 102.535 51.9471 102.447 51.7814C102.364 51.6109 102.323 51.433 102.323 51.2478C102.323 51.0626 102.359 50.8945 102.433 50.7434C102.506 50.5875 102.606 50.4559 102.732 50.3487C102.859 50.2366 103.008 50.1513 103.178 50.0928C103.354 50.0343 103.544 50.0051 103.748 50.0051C103.929 50.0051 104.102 50.0295 104.267 50.0782C104.433 50.1269 104.579 50.2 104.706 50.2975C104.833 50.3901 104.935 50.5095 105.013 50.6557C105.091 50.797 105.13 50.9627 105.13 51.1528C105.13 51.4354 105.047 51.684 104.881 51.8984C104.716 52.1079 104.504 52.3053 104.245 52.4905L105.24 53.5285C105.313 53.3726 105.369 53.202 105.408 53.0168C105.452 52.8316 105.473 52.6318 105.473 52.4174H106.27C106.265 52.7634 106.224 53.0777 106.146 53.3604C106.068 53.643 105.958 53.9013 105.817 54.1352L106.892 55.261H105.605ZM103.829 54.5665C104.131 54.5665 104.411 54.4666 104.669 54.2668L103.471 53.0022C103.3 53.124 103.166 53.2483 103.068 53.375C102.971 53.5017 102.922 53.643 102.922 53.799C102.922 53.9013 102.944 54.0012 102.988 54.0987C103.032 54.1913 103.093 54.2717 103.171 54.3399C103.254 54.4082 103.351 54.4642 103.463 54.5081C103.575 54.547 103.697 54.5665 103.829 54.5665ZM103.215 51.2186C103.215 51.2624 103.222 51.3063 103.237 51.3501C103.251 51.3891 103.276 51.433 103.31 51.4817C103.344 51.5304 103.388 51.5865 103.441 51.6498C103.5 51.7132 103.573 51.7912 103.661 51.8838C103.846 51.7571 103.987 51.6401 104.085 51.5329C104.182 51.4208 104.231 51.299 104.231 51.1674C104.231 51.0358 104.184 50.931 104.092 50.8531C104.004 50.7702 103.89 50.7288 103.748 50.7288C103.592 50.7288 103.463 50.7775 103.361 50.875C103.263 50.9676 103.215 51.0821 103.215 51.2186ZM109.188 55.261V50.0709H111.074C111.498 50.0709 111.868 50.1391 112.185 50.2756C112.507 50.412 112.775 50.5972 112.989 50.8311C113.204 51.065 113.364 51.3404 113.472 51.6572C113.579 51.969 113.633 52.3029 113.633 52.6586C113.633 53.0534 113.572 53.4116 113.45 53.7332C113.333 54.05 113.162 54.3229 112.938 54.5519C112.714 54.7761 112.443 54.9515 112.127 55.0782C111.815 55.2001 111.464 55.261 111.074 55.261H109.188ZM112.616 52.6586C112.616 52.4101 112.582 52.181 112.514 51.9715C112.446 51.7619 112.346 51.5816 112.214 51.4305C112.083 51.2795 111.92 51.1625 111.725 51.0797C111.535 50.9968 111.318 50.9554 111.074 50.9554H110.197V54.3765H111.074C111.323 54.3765 111.542 54.3326 111.732 54.2449C111.927 54.1572 112.088 54.0378 112.214 53.8867C112.346 53.7308 112.446 53.548 112.514 53.3385C112.582 53.1289 112.616 52.9023 112.616 52.6586ZM114.326 55.261V51.4305H115.305V55.261H114.326ZM114.326 50.8969V49.9247H115.305V50.8969H114.326ZM117.636 55.3341C117.315 55.3341 117 55.2829 116.693 55.1806C116.386 55.0782 116.123 54.932 115.904 54.742L116.269 54.1279C116.503 54.2936 116.73 54.4203 116.949 54.5081C117.173 54.5909 117.395 54.6323 117.614 54.6323C117.809 54.6323 117.963 54.5958 118.075 54.5227C118.187 54.4496 118.243 54.3448 118.243 54.2083C118.243 54.0719 118.177 53.972 118.046 53.9086C117.914 53.8453 117.7 53.7722 117.402 53.6893C117.154 53.6211 116.942 53.5553 116.766 53.492C116.591 53.4286 116.45 53.3579 116.342 53.28C116.235 53.1971 116.157 53.1045 116.108 53.0022C116.06 52.895 116.035 52.7683 116.035 52.6221C116.035 52.4271 116.072 52.2517 116.145 52.0958C116.223 51.9398 116.33 51.8082 116.467 51.701C116.603 51.5889 116.761 51.5036 116.942 51.4452C117.127 51.3867 117.327 51.3574 117.541 51.3574C117.829 51.3574 118.097 51.3989 118.345 51.4817C118.599 51.5646 118.83 51.6986 119.04 51.8838L118.645 52.4759C118.45 52.3297 118.26 52.2225 118.075 52.1542C117.895 52.086 117.714 52.0519 117.534 52.0519C117.368 52.0519 117.229 52.086 117.117 52.1542C117.005 52.2225 116.949 52.3321 116.949 52.4832C116.949 52.5514 116.961 52.6075 116.986 52.6513C117.015 52.6952 117.059 52.7342 117.117 52.7683C117.176 52.8024 117.251 52.8365 117.344 52.8706C117.441 52.8999 117.561 52.9315 117.702 52.9656C117.965 53.0339 118.189 53.1021 118.375 53.1703C118.565 53.2386 118.718 53.3165 118.835 53.4042C118.957 53.492 119.045 53.5943 119.098 53.7113C119.157 53.8234 119.186 53.9598 119.186 54.1206C119.186 54.4959 119.047 54.7931 118.769 55.0124C118.491 55.2269 118.114 55.3341 117.636 55.3341ZM122.118 55.3341C121.816 55.3341 121.552 55.2683 121.328 55.1367C121.104 55.0003 120.929 54.8175 120.802 54.5885V56.818H119.822V51.4305H120.678V52.0884C120.819 51.8643 121.002 51.6888 121.226 51.5621C121.45 51.4305 121.708 51.3648 122.001 51.3648C122.259 51.3648 122.498 51.4184 122.717 51.5256C122.936 51.6279 123.124 51.7692 123.28 51.9496C123.441 52.125 123.565 52.3345 123.653 52.5782C123.745 52.817 123.792 53.0704 123.792 53.3385C123.792 53.6162 123.75 53.877 123.667 54.1206C123.585 54.3643 123.468 54.5763 123.317 54.7566C123.17 54.9369 122.995 55.0782 122.79 55.1806C122.586 55.2829 122.361 55.3341 122.118 55.3341ZM121.789 54.5007C121.935 54.5007 122.069 54.4691 122.191 54.4057C122.318 54.3424 122.425 54.2571 122.513 54.1499C122.6 54.0427 122.668 53.9184 122.717 53.7771C122.766 53.6357 122.79 53.4895 122.79 53.3385C122.79 53.1776 122.763 53.029 122.71 52.8925C122.656 52.7512 122.581 52.6294 122.483 52.527C122.391 52.4247 122.279 52.3443 122.147 52.2858C122.02 52.2273 121.881 52.1981 121.73 52.1981C121.638 52.1981 121.543 52.2152 121.445 52.2493C121.348 52.2785 121.258 52.3224 121.175 52.3808C121.092 52.4393 121.016 52.5076 120.948 52.5855C120.885 52.6635 120.836 52.7488 120.802 52.8414V53.7405C120.89 53.9598 121.024 54.1426 121.204 54.2888C121.384 54.4301 121.579 54.5007 121.789 54.5007ZM126.224 55.3341C125.913 55.3341 125.632 55.2805 125.384 55.1733C125.135 55.0661 124.923 54.9223 124.748 54.742C124.577 54.5568 124.446 54.3448 124.353 54.106C124.26 53.8672 124.214 53.6162 124.214 53.3531C124.214 53.085 124.26 52.8316 124.353 52.5928C124.446 52.354 124.577 52.1445 124.748 51.9642C124.923 51.779 125.135 51.6328 125.384 51.5256C125.632 51.4184 125.913 51.3648 126.224 51.3648C126.536 51.3648 126.814 51.4184 127.058 51.5256C127.306 51.6328 127.516 51.779 127.686 51.9642C127.862 52.1445 127.996 52.354 128.088 52.5928C128.181 52.8316 128.227 53.085 128.227 53.3531C128.227 53.6162 128.181 53.8672 128.088 54.106C127.996 54.3448 127.864 54.5568 127.694 54.742C127.523 54.9223 127.314 55.0661 127.065 55.1733C126.817 55.2805 126.536 55.3341 126.224 55.3341ZM125.223 53.3531C125.223 53.5236 125.247 53.6796 125.296 53.8209C125.35 53.9574 125.42 54.0768 125.508 54.1791C125.601 54.2814 125.708 54.3619 125.83 54.4203C125.952 54.4739 126.083 54.5007 126.224 54.5007C126.366 54.5007 126.497 54.4739 126.619 54.4203C126.741 54.3619 126.846 54.2814 126.934 54.1791C127.026 54.0768 127.097 53.9549 127.145 53.8136C127.199 53.6723 127.226 53.5163 127.226 53.3458C127.226 53.1801 127.199 53.0266 127.145 52.8852C127.097 52.7439 127.026 52.6221 126.934 52.5197C126.846 52.4174 126.741 52.3394 126.619 52.2858C126.497 52.2273 126.366 52.1981 126.224 52.1981C126.083 52.1981 125.952 52.2273 125.83 52.2858C125.708 52.3443 125.601 52.4247 125.508 52.527C125.42 52.6294 125.35 52.7512 125.296 52.8925C125.247 53.0339 125.223 53.1874 125.223 53.3531ZM130.336 55.3341C130.014 55.3341 129.7 55.2829 129.393 55.1806C129.086 55.0782 128.823 54.932 128.603 54.742L128.969 54.1279C129.203 54.2936 129.429 54.4203 129.649 54.5081C129.873 54.5909 130.095 54.6323 130.314 54.6323C130.509 54.6323 130.662 54.5958 130.775 54.5227C130.887 54.4496 130.943 54.3448 130.943 54.2083C130.943 54.0719 130.877 53.972 130.745 53.9086C130.614 53.8453 130.399 53.7722 130.102 53.6893C129.853 53.6211 129.641 53.5553 129.466 53.492C129.291 53.4286 129.149 53.3579 129.042 53.28C128.935 53.1971 128.857 53.1045 128.808 53.0022C128.759 52.895 128.735 52.7683 128.735 52.6221C128.735 52.4271 128.772 52.2517 128.845 52.0958C128.923 51.9398 129.03 51.8082 129.166 51.701C129.303 51.5889 129.461 51.5036 129.641 51.4452C129.827 51.3867 130.026 51.3574 130.241 51.3574C130.528 51.3574 130.796 51.3989 131.045 51.4817C131.298 51.5646 131.53 51.6986 131.739 51.8838L131.345 52.4759C131.15 52.3297 130.96 52.2225 130.775 52.1542C130.594 52.086 130.414 52.0519 130.234 52.0519C130.068 52.0519 129.929 52.086 129.817 52.1542C129.705 52.2225 129.649 52.3321 129.649 52.4832C129.649 52.5514 129.661 52.6075 129.685 52.6513C129.715 52.6952 129.758 52.7342 129.817 52.7683C129.875 52.8024 129.951 52.8365 130.044 52.8706C130.141 52.8999 130.26 52.9315 130.402 52.9656C130.665 53.0339 130.889 53.1021 131.074 53.1703C131.264 53.2386 131.418 53.3165 131.535 53.4042C131.657 53.492 131.744 53.5943 131.798 53.7113C131.856 53.8234 131.886 53.9598 131.886 54.1206C131.886 54.4959 131.747 54.7931 131.469 55.0124C131.191 55.2269 130.814 55.3341 130.336 55.3341ZM132.522 55.261V51.4305H133.502V55.261H132.522ZM132.522 50.8969V49.9247H133.502V50.8969H132.522ZM136.681 55.0636C136.549 55.1221 136.388 55.1806 136.198 55.2391C136.008 55.2975 135.808 55.3268 135.599 55.3268C135.462 55.3268 135.333 55.3097 135.211 55.2756C135.094 55.2415 134.99 55.1879 134.897 55.1148C134.809 55.0368 134.739 54.9393 134.685 54.8224C134.631 54.7006 134.605 54.5544 134.605 54.3838V52.1835H134.1V51.4305H134.605V50.1878H135.584V51.4305H136.388V52.1835H135.584V54.0548C135.584 54.1913 135.618 54.2888 135.686 54.3472C135.76 54.4008 135.847 54.4276 135.95 54.4276C136.052 54.4276 136.152 54.4106 136.249 54.3765C136.347 54.3424 136.425 54.3131 136.483 54.2888L136.681 55.0636ZM137.191 55.261V51.4305H138.17V55.261H137.191ZM137.191 50.8969V49.9247H138.17V50.8969H137.191ZM140.823 55.3341C140.511 55.3341 140.231 55.2805 139.982 55.1733C139.734 55.0661 139.522 54.9223 139.346 54.742C139.176 54.5568 139.044 54.3448 138.952 54.106C138.859 53.8672 138.813 53.6162 138.813 53.3531C138.813 53.085 138.859 52.8316 138.952 52.5928C139.044 52.354 139.176 52.1445 139.346 51.9642C139.522 51.779 139.734 51.6328 139.982 51.5256C140.231 51.4184 140.511 51.3648 140.823 51.3648C141.135 51.3648 141.413 51.4184 141.656 51.5256C141.905 51.6328 142.114 51.779 142.285 51.9642C142.46 52.1445 142.594 52.354 142.687 52.5928C142.78 52.8316 142.826 53.085 142.826 53.3531C142.826 53.6162 142.78 53.8672 142.687 54.106C142.594 54.3448 142.463 54.5568 142.292 54.742C142.122 54.9223 141.912 55.0661 141.664 55.1733C141.415 55.2805 141.135 55.3341 140.823 55.3341ZM139.822 53.3531C139.822 53.5236 139.846 53.6796 139.895 53.8209C139.948 53.9574 140.019 54.0768 140.107 54.1791C140.199 54.2814 140.306 54.3619 140.428 54.4203C140.55 54.4739 140.682 54.5007 140.823 54.5007C140.964 54.5007 141.096 54.4739 141.218 54.4203C141.34 54.3619 141.444 54.2814 141.532 54.1791C141.625 54.0768 141.695 53.9549 141.744 53.8136C141.798 53.6723 141.824 53.5163 141.824 53.3458C141.824 53.1801 141.798 53.0266 141.744 52.8852C141.695 52.7439 141.625 52.6221 141.532 52.5197C141.444 52.4174 141.34 52.3394 141.218 52.2858C141.096 52.2273 140.964 52.1981 140.823 52.1981C140.682 52.1981 140.55 52.2273 140.428 52.2858C140.306 52.3443 140.199 52.4247 140.107 52.527C140.019 52.6294 139.948 52.7512 139.895 52.8925C139.846 53.0339 139.822 53.1874 139.822 53.3531ZM147.047 55.261H146.068V53.1118C146.068 52.8048 146.014 52.5807 145.907 52.4393C145.8 52.298 145.651 52.2273 145.461 52.2273C145.363 52.2273 145.263 52.2468 145.161 52.2858C145.059 52.3248 144.961 52.3808 144.869 52.4539C144.781 52.5222 144.701 52.605 144.627 52.7025C144.554 52.8 144.501 52.9072 144.467 53.0241V55.261H143.487V51.4305H144.372V52.1396C144.513 51.8959 144.718 51.7059 144.986 51.5694C145.254 51.433 145.556 51.3648 145.892 51.3648C146.131 51.3648 146.326 51.4086 146.477 51.4963C146.628 51.5841 146.745 51.6986 146.828 51.8399C146.911 51.9812 146.967 52.1421 146.996 52.3224C147.03 52.5027 147.047 52.6854 147.047 52.8706V55.261ZM0.744462 64.261V59.0709H1.75324V64.261H0.744462ZM6.30103 64.261H5.32149V62.1118C5.32149 61.8048 5.26789 61.5807 5.16067 61.4393C5.05346 61.298 4.90482 61.2273 4.71476 61.2273C4.6173 61.2273 4.51739 61.2468 4.41505 61.2858C4.31271 61.3248 4.21525 61.3808 4.12265 61.4539C4.03493 61.5222 3.95452 61.605 3.88142 61.7025C3.80832 61.8 3.75472 61.9072 3.7206 62.0241V64.261H2.74106V60.4305H3.62557V61.1396C3.7669 60.8959 3.97158 60.7059 4.23961 60.5694C4.50765 60.433 4.80979 60.3648 5.14605 60.3648C5.38485 60.3648 5.57978 60.4086 5.73085 60.4963C5.88193 60.5841 5.99889 60.6986 6.08173 60.8399C6.16458 60.9812 6.22062 61.1421 6.24986 61.3224C6.28398 61.5027 6.30103 61.6854 6.30103 61.8706V64.261ZM8.09781 64.261L6.68698 60.4305H7.69576L8.66799 63.4642L9.64753 60.4305H10.5686L9.15776 64.261H8.09781ZM12.7269 64.3341C12.4198 64.3341 12.1421 64.2829 11.8935 64.1806C11.645 64.0734 11.433 63.9296 11.2576 63.7493C11.0821 63.569 10.9457 63.3594 10.8482 63.1206C10.7556 62.8818 10.7093 62.6309 10.7093 62.3677C10.7093 62.0948 10.7556 61.8389 10.8482 61.6001C10.9408 61.3565 11.0748 61.1445 11.2502 60.9642C11.4257 60.779 11.6377 60.6328 11.8862 60.5256C12.1396 60.4184 12.4223 60.3648 12.7342 60.3648C13.0461 60.3648 13.3238 60.4184 13.5675 60.5256C13.8161 60.6328 14.0256 60.7766 14.1962 60.9569C14.3716 61.1372 14.5032 61.3467 14.5909 61.5855C14.6835 61.8243 14.7298 62.0729 14.7298 62.3311C14.7298 62.3945 14.7274 62.4554 14.7225 62.5139C14.7225 62.5724 14.7176 62.6211 14.7079 62.6601H11.7473C11.7619 62.8112 11.7985 62.9452 11.857 63.0621C11.9155 63.1791 11.991 63.279 12.0836 63.3619C12.1762 63.4447 12.281 63.5081 12.3979 63.5519C12.5149 63.5958 12.6367 63.6177 12.7634 63.6177C12.9583 63.6177 13.1411 63.5714 13.3117 63.4788C13.4871 63.3813 13.6065 63.2546 13.6699 63.0987L14.5105 63.3326C14.3692 63.625 14.1426 63.8662 13.8307 64.0563C13.5237 64.2415 13.1557 64.3341 12.7269 64.3341ZM13.721 62.0241C13.6967 61.7366 13.5894 61.5076 13.3994 61.337C13.2142 61.1615 12.9876 61.0738 12.7196 61.0738C12.588 61.0738 12.4637 61.0982 12.3467 61.1469C12.2347 61.1908 12.1348 61.2541 12.047 61.337C11.9593 61.4198 11.8862 61.5197 11.8277 61.6367C11.7741 61.7537 11.7425 61.8828 11.7327 62.0241H13.721ZM18.8865 64.261H17.907V62.1118C17.907 61.8048 17.8534 61.5807 17.7462 61.4393C17.6389 61.298 17.4903 61.2273 17.3002 61.2273C17.2028 61.2273 17.1029 61.2468 17.0005 61.2858C16.8982 61.3248 16.8007 61.3808 16.7081 61.4539C16.6204 61.5222 16.54 61.605 16.4669 61.7025C16.3938 61.8 16.3402 61.9072 16.3061 62.0241V64.261H15.3265V60.4305H16.2111V61.1396C16.3524 60.8959 16.5571 60.7059 16.8251 60.5694C17.0931 60.433 17.3953 60.3648 17.7315 60.3648C17.9703 60.3648 18.1653 60.4086 18.3163 60.4963C18.4674 60.5841 18.5844 60.6986 18.6672 60.8399C18.7501 60.9812 18.8061 61.1421 18.8353 61.3224C18.8695 61.5027 18.8865 61.6854 18.8865 61.8706V64.261ZM21.9979 64.0636C21.8663 64.1221 21.7055 64.1806 21.5154 64.2391C21.3254 64.2975 21.1256 64.3268 20.916 64.3268C20.7796 64.3268 20.6504 64.3097 20.5286 64.2756C20.4116 64.2415 20.3068 64.1879 20.2142 64.1148C20.1265 64.0368 20.0559 63.9393 20.0023 63.8224C19.9486 63.7006 19.9218 63.5544 19.9218 63.3838V61.1835H19.4175V60.4305H19.9218V59.1878H20.9014V60.4305H21.7055V61.1835H20.9014V63.0548C20.9014 63.1913 20.9355 63.2888 21.0037 63.3472C21.0768 63.4008 21.1645 63.4276 21.2669 63.4276C21.3692 63.4276 21.4691 63.4106 21.5666 63.3765C21.6641 63.3424 21.742 63.3131 21.8005 63.2888L21.9979 64.0636ZM24.1843 64.3341C23.8724 64.3341 23.5922 64.2805 23.3436 64.1733C23.0951 64.0661 22.8831 63.9223 22.7076 63.742C22.5371 63.5568 22.4055 63.3448 22.3129 63.106C22.2203 62.8672 22.174 62.6162 22.174 62.3531C22.174 62.085 22.2203 61.8316 22.3129 61.5928C22.4055 61.354 22.5371 61.1445 22.7076 60.9642C22.8831 60.779 23.0951 60.6328 23.3436 60.5256C23.5922 60.4184 23.8724 60.3648 24.1843 60.3648C24.4962 60.3648 24.7739 60.4184 25.0176 60.5256C25.2661 60.6328 25.4757 60.779 25.6463 60.9642C25.8217 61.1445 25.9557 61.354 26.0483 61.5928C26.1409 61.8316 26.1872 62.085 26.1872 62.3531C26.1872 62.6162 26.1409 62.8672 26.0483 63.106C25.9557 63.3448 25.8241 63.5568 25.6536 63.742C25.483 63.9223 25.2735 64.0661 25.0249 64.1733C24.7764 64.2805 24.4962 64.3341 24.1843 64.3341ZM23.1828 62.3531C23.1828 62.5236 23.2072 62.6796 23.2559 62.8209C23.3095 62.9574 23.3802 63.0768 23.4679 63.1791C23.5605 63.2814 23.6677 63.3619 23.7895 63.4203C23.9114 63.4739 24.0429 63.5007 24.1843 63.5007C24.3256 63.5007 24.4572 63.4739 24.579 63.4203C24.7008 63.3619 24.8056 63.2814 24.8933 63.1791C24.9859 63.0768 25.0566 62.9549 25.1053 62.8136C25.1589 62.6723 25.1857 62.5163 25.1857 62.3458C25.1857 62.1801 25.1589 62.0266 25.1053 61.8852C25.0566 61.7439 24.9859 61.6221 24.8933 61.5197C24.8056 61.4174 24.7008 61.3394 24.579 61.2858C24.4572 61.2273 24.3256 61.1981 24.1843 61.1981C24.0429 61.1981 23.9114 61.2273 23.7895 61.2858C23.6677 61.3443 23.5605 61.4247 23.4679 61.527C23.3802 61.6294 23.3095 61.7512 23.2559 61.8925C23.2072 62.0339 23.1828 62.1874 23.1828 62.3531ZM29.1291 61.2785C28.8318 61.2834 28.5662 61.3419 28.3323 61.4539C28.0984 61.5612 27.9302 61.7244 27.8279 61.9437V64.261H26.8484V60.4305H27.7475V61.2493C27.8157 61.1177 27.8961 61.0007 27.9887 60.8984C28.0813 60.7912 28.1812 60.6986 28.2884 60.6206C28.3956 60.5426 28.5029 60.4842 28.6101 60.4452C28.7222 60.4013 28.8294 60.3794 28.9317 60.3794C28.9853 60.3794 29.0243 60.3794 29.0487 60.3794C29.0779 60.3794 29.1047 60.3818 29.1291 60.3867V61.2785ZM29.7557 65.0066C29.8385 65.031 29.9189 65.048 29.9969 65.0578C30.0749 65.0724 30.1407 65.0797 30.1943 65.0797C30.2576 65.0797 30.3161 65.0675 30.3697 65.0432C30.4233 65.0188 30.4721 64.9749 30.5159 64.9116C30.5598 64.8531 30.6036 64.7702 30.6475 64.663C30.6914 64.5558 30.7377 64.4218 30.7864 64.261L29.2732 60.4305H30.282L31.32 63.413L32.2411 60.4305H33.1621L31.5539 65.0212C31.4613 65.2893 31.303 65.5086 31.0788 65.6791C30.8546 65.8497 30.5768 65.935 30.2455 65.935C30.1675 65.935 30.0871 65.9277 30.0042 65.913C29.9262 65.9033 29.8434 65.8838 29.7557 65.8546V65.0066ZM39.7097 59.0709V64.261H38.7082V62.0461H36.3544V64.261H35.3456V59.0709H36.3544V61.1689H38.7082V59.0709H39.7097ZM41.867 64.3341C41.4722 64.3341 41.1725 64.2074 40.9678 63.954C40.7632 63.7006 40.6608 63.3253 40.6608 62.8282V60.4305H41.6404V62.6162C41.6404 63.2059 41.8524 63.5007 42.2763 63.5007C42.4664 63.5007 42.6491 63.4447 42.8246 63.3326C43.0049 63.2157 43.1511 63.0402 43.2632 62.8063V60.4305H44.2427V63.1352C44.2427 63.2376 44.2598 63.3107 44.2939 63.3545C44.3329 63.3984 44.3938 63.4228 44.4766 63.4276V64.261C44.3792 64.2805 44.2963 64.2927 44.2281 64.2975C44.1648 64.3024 44.1063 64.3048 44.0527 64.3048C43.8772 64.3048 43.7335 64.2659 43.6214 64.1879C43.5142 64.105 43.4508 63.993 43.4313 63.8516L43.4094 63.5446C43.2388 63.8078 43.0195 64.0051 42.7515 64.1367C42.4835 64.2683 42.1886 64.3341 41.867 64.3341ZM47.3945 64.3341C47.1021 64.3341 46.8414 64.2683 46.6124 64.1367C46.3833 64.0051 46.203 63.8248 46.0714 63.5958V64.261H45.2162V58.9247H46.1957V61.1031C46.3322 60.8691 46.51 60.6888 46.7293 60.5621C46.9535 60.4305 47.2142 60.3648 47.5115 60.3648C47.76 60.3648 47.9866 60.4184 48.1913 60.5256C48.396 60.6328 48.5714 60.7766 48.7176 60.9569C48.8687 61.1372 48.9832 61.3492 49.0612 61.5928C49.1441 61.8365 49.1855 62.0924 49.1855 62.3604C49.1855 62.6382 49.1392 62.8965 49.0466 63.1352C48.9589 63.374 48.8346 63.5836 48.6738 63.7639C48.513 63.9393 48.3229 64.0782 48.1036 64.1806C47.8843 64.2829 47.648 64.3341 47.3945 64.3341ZM47.1241 63.5007C47.28 63.5007 47.4238 63.4715 47.5554 63.413C47.6869 63.3497 47.799 63.2668 47.8916 63.1645C47.9842 63.0621 48.0549 62.9427 48.1036 62.8063C48.1572 62.6698 48.184 62.5236 48.184 62.3677C48.184 62.2117 48.1597 62.0631 48.1109 61.9218C48.0622 61.7805 47.9915 61.6562 47.8989 61.549C47.8112 61.4418 47.7064 61.3565 47.5846 61.2931C47.4628 61.2298 47.3287 61.1981 47.1825 61.1981C46.9632 61.1981 46.7659 61.2712 46.5904 61.4174C46.4199 61.5587 46.2883 61.7342 46.1957 61.9437V62.8575C46.2298 62.9549 46.2785 63.0427 46.3419 63.1206C46.4101 63.1986 46.4857 63.2668 46.5685 63.3253C46.6514 63.3789 46.7415 63.4228 46.839 63.4569C46.9364 63.4861 47.0315 63.5007 47.1241 63.5007Z" fill="white"/>
</g>
<defs>
<clipPath id="clip0_521_1030">
<rect width="159" height="55" fill="white"/>
</clipPath>
</defs>
</svg>
