<svg width="20" height="22" viewBox="0 0 20 22" fill="none" xmlns="http://www.w3.org/2000/svg">
<g clip-path="url(#clip0_508_74)">
<path d="M6.74331 16.5036C7.12257 15.4306 8.14592 14.6618 9.34883 14.6618C10.5517 14.6618 11.5751 15.4306 11.9544 16.5036H21.3206V18.3454H11.9544C11.5751 19.4185 10.5517 20.1872 9.34883 20.1872C8.14592 20.1872 7.12257 19.4185 6.74331 18.3454H2.90247V16.5036H6.74331ZM12.2688 10.0573C12.648 8.98422 13.6714 8.21543 14.8743 8.21543C16.0772 8.21543 17.1006 8.98422 17.4798 10.0573H21.3206V11.8991H17.4798C17.1006 12.9721 16.0772 13.7409 14.8743 13.7409C13.6714 13.7409 12.648 12.9721 12.2688 11.8991H2.90247V10.0573H12.2688ZM6.74331 3.61089C7.12257 2.53786 8.14592 1.76907 9.34883 1.76907C10.5517 1.76907 11.5751 2.53786 11.9544 3.61089H21.3206V5.45271H11.9544C11.5751 6.52574 10.5517 7.29453 9.34883 7.29453C8.14592 7.29453 7.12257 6.52574 6.74331 5.45271H2.90247V3.61089H6.74331ZM9.34883 5.45271C9.85743 5.45271 10.2697 5.0404 10.2697 4.5318C10.2697 4.0232 9.85743 3.61089 9.34883 3.61089C8.84023 3.61089 8.42792 4.0232 8.42792 4.5318C8.42792 5.0404 8.84023 5.45271 9.34883 5.45271ZM14.8743 11.8991C15.3829 11.8991 15.7952 11.4868 15.7952 10.9782C15.7952 10.4695 15.3829 10.0573 14.8743 10.0573C14.3657 10.0573 13.9534 10.4695 13.9534 10.9782C13.9534 11.4868 14.3657 11.8991 14.8743 11.8991ZM9.34883 18.3454C9.85743 18.3454 10.2697 17.9331 10.2697 17.4245C10.2697 16.9159 9.85743 16.5036 9.34883 16.5036C8.84023 16.5036 8.42792 16.9159 8.42792 17.4245C8.42792 17.9331 8.84023 18.3454 9.34883 18.3454Z" fill="white"/>
</g>
<defs>
<clipPath id="clip0_508_74">
<rect width="18.9866" height="21.179" fill="white" transform="translate(0.902466 0.388672)"/>
</clipPath>
</defs>
</svg>
